<mxfile host="app.diagrams.net" modified="2020-11-30T03:48:31.311Z" agent="5.0 (Windows NT 10.0; Win64; x64) AppleWebKit/537.36 (KHTML, like Gecko) Chrome/87.0.4280.66 Safari/537.36" etag="vsBH1O2M1fZnGGOrTCFG" version="13.8.1" type="github">
  <diagram id="ZtzHsr6lfNty3EwGVwSP" name="Page-1">
    <mxGraphModel dx="2405" dy="802" grid="0" gridSize="10" guides="1" tooltips="1" connect="1" arrows="1" fold="1" page="1" pageScale="1" pageWidth="850" pageHeight="1100" math="0" shadow="0">
      <root>
        <mxCell id="0" />
        <mxCell id="1" parent="0" />
        <mxCell id="dcIogtWbxeqWuTG1K_oC-47" value="Legend" style="rounded=0;whiteSpace=wrap;html=1;fontColor=#000000;align=left;verticalAlign=top;" vertex="1" parent="1">
          <mxGeometry x="-200" y="510" width="1000" height="60" as="geometry" />
        </mxCell>
        <mxCell id="dcIogtWbxeqWuTG1K_oC-1" value="Client-Data Repo" style="rounded=1;whiteSpace=wrap;html=1;verticalAlign=top;align=center;" vertex="1" parent="1">
          <mxGeometry x="-210" y="238" width="250" height="159" as="geometry" />
        </mxCell>
        <mxCell id="dcIogtWbxeqWuTG1K_oC-2" value="client-data-component-test-db-persistent-storage.yml" style="rounded=0;whiteSpace=wrap;html=1;fillColor=#dae8fc;strokeColor=#6c8ebf;" vertex="1" parent="1">
          <mxGeometry x="-200" y="272" width="220" height="40" as="geometry" />
        </mxCell>
        <mxCell id="dcIogtWbxeqWuTG1K_oC-3" value="client-data-component-test.yml" style="rounded=0;whiteSpace=wrap;html=1;fillColor=#dae8fc;strokeColor=#6c8ebf;" vertex="1" parent="1">
          <mxGeometry x="-200" y="330" width="220" height="40" as="geometry" />
        </mxCell>
        <mxCell id="dcIogtWbxeqWuTG1K_oC-12" value="1. Get blueprint" style="edgeStyle=orthogonalEdgeStyle;rounded=0;orthogonalLoop=1;jettySize=auto;html=1;entryX=1;entryY=0.5;entryDx=0;entryDy=0;fillColor=#d5e8d4;strokeColor=#82b366;fontColor=#009900;fontStyle=1;exitX=0.25;exitY=0;exitDx=0;exitDy=0;" edge="1" parent="1" source="dcIogtWbxeqWuTG1K_oC-4" target="dcIogtWbxeqWuTG1K_oC-2">
          <mxGeometry x="-0.2688" relative="1" as="geometry">
            <Array as="points">
              <mxPoint x="225" y="239" />
              <mxPoint x="92" y="239" />
              <mxPoint x="92" y="292" />
            </Array>
            <mxPoint as="offset" />
          </mxGeometry>
        </mxCell>
        <mxCell id="dcIogtWbxeqWuTG1K_oC-13" value="2. Create persistentStorage&lt;br&gt;environment" style="edgeStyle=orthogonalEdgeStyle;rounded=0;orthogonalLoop=1;jettySize=auto;html=1;entryX=0.5;entryY=0;entryDx=0;entryDy=0;fillColor=#d5e8d4;strokeColor=#82b366;fontColor=#009900;fontStyle=1" edge="1" parent="1" source="dcIogtWbxeqWuTG1K_oC-4" target="dcIogtWbxeqWuTG1K_oC-20">
          <mxGeometry x="-0.1142" y="15" relative="1" as="geometry">
            <Array as="points">
              <mxPoint x="241" y="240" />
              <mxPoint x="485" y="240" />
            </Array>
            <mxPoint as="offset" />
          </mxGeometry>
        </mxCell>
        <mxCell id="dcIogtWbxeqWuTG1K_oC-23" style="edgeStyle=orthogonalEdgeStyle;rounded=0;orthogonalLoop=1;jettySize=auto;html=1;entryX=1;entryY=0.5;entryDx=0;entryDy=0;fontColor=#009900;fillColor=#e1d5e7;strokeColor=#9673a6;exitX=0.25;exitY=1;exitDx=0;exitDy=0;fontSize=12;" edge="1" parent="1" source="dcIogtWbxeqWuTG1K_oC-4" target="dcIogtWbxeqWuTG1K_oC-3">
          <mxGeometry relative="1" as="geometry">
            <Array as="points">
              <mxPoint x="225" y="410" />
              <mxPoint x="93" y="410" />
              <mxPoint x="93" y="350" />
            </Array>
          </mxGeometry>
        </mxCell>
        <mxCell id="dcIogtWbxeqWuTG1K_oC-32" value="1. Get bluepirnt" style="edgeLabel;html=1;align=center;verticalAlign=middle;resizable=0;points=[];fontColor=#990099;fontStyle=1;fontSize=12;" vertex="1" connectable="0" parent="dcIogtWbxeqWuTG1K_oC-23">
          <mxGeometry x="0.6316" y="-1" relative="1" as="geometry">
            <mxPoint x="83.7" y="60" as="offset" />
          </mxGeometry>
        </mxCell>
        <mxCell id="dcIogtWbxeqWuTG1K_oC-62" style="edgeStyle=orthogonalEdgeStyle;rounded=0;orthogonalLoop=1;jettySize=auto;html=1;entryX=0.5;entryY=1;entryDx=0;entryDy=0;strokeWidth=1;fontSize=12;fontColor=#000000;fillColor=#e1d5e7;strokeColor=#9673a6;" edge="1" parent="1" source="dcIogtWbxeqWuTG1K_oC-4" target="dcIogtWbxeqWuTG1K_oC-20">
          <mxGeometry relative="1" as="geometry">
            <Array as="points">
              <mxPoint x="241" y="412" />
              <mxPoint x="485" y="412" />
            </Array>
          </mxGeometry>
        </mxCell>
        <mxCell id="dcIogtWbxeqWuTG1K_oC-67" value="&lt;font style=&quot;font-size: 12px;&quot;&gt;2. Create test environment&lt;/font&gt;" style="edgeLabel;html=1;align=center;verticalAlign=middle;resizable=0;points=[];fontSize=12;fontColor=#990099;fontStyle=1" vertex="1" connectable="0" parent="dcIogtWbxeqWuTG1K_oC-62">
          <mxGeometry x="-0.4565" y="3" relative="1" as="geometry">
            <mxPoint x="62.4" y="2" as="offset" />
          </mxGeometry>
        </mxCell>
        <mxCell id="dcIogtWbxeqWuTG1K_oC-4" value="" style="shape=image;verticalLabelPosition=bottom;labelBackgroundColor=#ffffff;verticalAlign=top;aspect=fixed;imageAspect=0;image=data:image/png,iVBORw0KGgoAAAANSUhEUgAAAFQAAABuCAYAAAC5ijQKAAAgAElEQVR4Ae2dZ1gUSfe399k17IoiSeIwA0wOzDADA0jOAgoioGJAksiaUTFj2lVMa9Y1iznnnBMqZgExrzln3fh8+73XKbdnAUERkfV5/37oq3q6e7qr7j516tSpU9Vf/fe//8WXrfoYfPUFZvXBJJZfgFZzDf0C9AvQ6q2i1a3yvkjoFwn9IqEfbZY9evIEhcUXkJ9/HDt37MCOHTuwe/duHD9xAsWXLuPZ8xcf/YzqqvqfbZV/+OABlixejOTEDtC7uUEilUIoFELA54PP50MgEEAkEkEqk8HT3QOdM77H+nXr8PLly38V7mcH9GDeEaQmp8Lc3ByWFhawNrNA3Vq1oZVL0D25Jab+kIl54wdg8vCe6N+lPQK99DBt2BB16tSBsbExLCwsMGnixH8N6mcB9I8//sCR4yfQIro5ateujXr16sHexhYWpqYI8nbDxkVT8OjSYby6ebzc7da5Pdi6eDLaxkWjoXEDfP3115CJJTh+6jT++uuvGoX7rwKl6nn2XAH6ZvWFk5MTWjSPQW5uLkbmjIaXTo2fx2bjbtF+A8SX14/ifduZfavQNbkVrCxMYWfHw8YNG/Dq1asag/qvACWJvH79OqZMmQI/Pz+kpaZi2dKlWL9hI7J690ZMRCDyty9iIAngi2t5bHtStBWPCza/d3t5cQe2LhwHlVQOJycRFi5ciGfPntUI1BoH+vvvv+Nofj5SUlLg5+uHceN/wvYdOzF29BgEejXGoMwMUBWm6v3y+hE8Ld71XoDlQX5evA2H1s6Ai1IBmUyGJUuW4uXLTy+pNQqU9Nm5gkJERTdHZEQklixfgcVLl6Ff336ICGuCWWOz/wZ5DM8v768yzJKA184ZCY1CBBedDjt27gLVjuoykcq7T40Cff78BbKzhyDAzx/rN27CkmUrkNmzF5qGR2DM0H54cSMfr27k4+mFqkllSZC0/6RoGx5f3I/caT9A7shHQsvWuHr16v8/QG/fug2lQoFOHTuhc/r3UMmVsLe3R+voMFw6toVJ5+sre0tV8WcX9+DFtcO4fmILHp59v/40QC3cgltntmPKyP7ISE6Al04DK4tGyF24CL/++usng1pjEnrvwUPEx8YxU8jRwQGt41th1I8jMXTIEHRo3QLXT+9kQJ8UbjEAfXphN66d3I5h/XvAxVkBmZCP3csmGc4b4JXTUD0r2oqZo/tDp5RBI5PDtIEpLExM0aF9Iu7dvfe/D1Ts4AiLhibQa3VYuXIV8o7mY8XKVcgenA29zhWX8rfgSeE/rTg1RsV5a5HQPAS21tZoG9ME/Tq3w8JJ2ZUC+vDcJhTuycXDMxtx+/gaLJs+DBqFErVrf4uCgoL/baBTJk/GV199hbDgEBzIy8PcBbno1DGdbWkpaVBKZbh4dFMpULdObEC/7qmIDGqMoxtngUyh15errlup1d+1bCKUEkcsWrr0kzVOn7zK//b775A5iVi3cOfefZgxfTo6pnZEl++7sC01KQUB3t64lrfSAPRp0RYcXvczOrWLxc6lE0HV913Vu7LnXl7Yjh5pbTCgXz+8fv36k0jpJwd66eo1WFpaIblDElavXVcKJkFtGRePjm1jcefEWgM00qNHNs7G/AnZeHh2o+E4B46OPTxbWqK5c+Wlj85twv3T69mLWTFjOBLiY/HixafxUH1yoAcOHWaOjvHjxjF9yUkml4aHNkHOwC6swCVhkA4sDyZdc+/sVuRt+PktyaXrb+WveesFPCrciuNb5+PSwaU4sWUOXJRSPH369H9PQh88fIisXn1gatwQBJSDWDL19PLDkmnD8eDMhrdAlATM7ZPBf7/4AIb1Tnvr+nun1mPu2AGljpMtSmbXspk52Jo7FhcPLoUT3xZPnjz53wJ65+499O0/AAJHISxNzZh5VBIkt6/We2HrksqZQi+Kt+PVzXw8upyHWeOzsW3RODw7v80A8GnRVjQPC8CF/Yv/OVa8i5lje1bNxKzRfXFq+zyIHOywatWq/x2gd+/dR5++/WBiz0cbkQhmZuYY0K8/khKT0CQ0DM0imyKpfQcmsW46PWt4OAl8V0rAXl/dh1dX9uLE1vno3iEexzbNwrPzbxqtVxd3YPTAzujVMYFZBXSvm/lrcGTTXKybNxrRoT5YPCUbQoET826tWbOm2qFWuw598fIlfhyVg/rWNkiViHBA7wJLOx6kTkIYNzDGd99+h3rf1YPA3h5xLWIR6OuPtXNGMXvxXTDp3N4Vk5EzIAPr5o7CosnZCPF2R3aPZJBJROepMbtyeBkszEywacEYvLiwHatmDoetlQWsLMzQNNgLRzb8DImTFKaWNqyXdvTIkWqFWu1A161ZC1MbW7SRiHC1sR5jVQrY2wvgxBdg+5KJeHwlD6f2LEdME184OTgypwj1aN4HkwP6bd06qF3rG9Sq9Q3c1DIc2zjLAJSueXVxJ/Pmm5k2xMUDS9iLOrh6GpNksgyeFm5hQMcoFTC35UEkFuP8xYvVBrXagJIn6cTx49C56RHA4+GY3hU3G+uhdhDAplEjFOVtwNUT27BgQjbOHFqPbatnwVevhafeHZ3ax5Uym94Ht3DPQqYnqVUnvVr2+teXdiIhOgx+7q64lrei1PlHBZshcbLHDp0zpqpVqG9nx7rE1eWErjagDx48QGpqGhxNTbFQq8Ezn8Y45e4KubkFxg/tyRqGtIRoWJmawc/DhY0Lfd8+BgJrK8Q3CcDNY6tLFbwspA/9ffnQUgQ01qNzYiyuHF5uuPft42shcuBjl06Ns+46dBaLwBeKMXHiJLyuBqdJtQAl6Vy8ZCmMjOqji1yKe17ueOTtid1uLhAZ1cOu1XMZ0JNb5yIhOhQzRvVBr46tQUb2z6P6MNuwIpvzQ0Fy15Mxv2/lFHjr1ej7fVtW/UnHFuzOhUIgwhE3F5xx12Gvmwv87XnQ+/jgcF7eR1f9agH68NEjuOpc4cOzxyl3PR56e+KKpx573TSQGhljfe5EBpT65NN+6IUbR1exfvXVw8tZw1HSw8QB+dD0afHON/7PEp6nR+c2Y8FPA+GuVWHZtKF4eWEH9q+aigihBKf0WgaUoE5XKyHk8dA3KwuPHj36KKjVAnT8+J/QsH4DTFYrDTCpOp3Qa+FuYY3B3ZMYULIPl00bxhqGuyfWggzxDwVX3vUk3c8uHwBBLXmeWv+NC8YiyMuDtfq/Xt6FpdOGortGxao7waR8HtS7oK2jA5RaLQukKM8TX9ljHw2U/Jx2tnYI4AtwrbE77nq5GzJb4K5DF7EIEr4drp3cwVpcanlLFro69nctnYBTO3Lx9G8jn5wg1AWdmZOFqFAfZPdMYXqU7NTBvTthhE6DAndXg4QS2NkaFaQWFsjOzv6oXtRHA501cxa+NmqAORoVk84LHm6GjNLb3+qqgZmVFRIT4t8C+fDMhgr76x8CelT/DNB2ducC7F81he27axVIadkUG+aNYg0eOV9u5a9GeFAg5jkrDXkkmLTtcXNBc0cHuHl5M2ulshJZ9rqPBqoWyfCNjS0eeHvigbeHQTq5jBZ6uCJLLkVdMwt0SmjOHBRUuJ+yu6FLYizO710Ectd9CEC6luxJkkTqepKd2T6uKQK8PNE6KhRjBnXGnuWTcOf4WlYrlk8fjolDe7ChZU+lHJvUbwOllz9apQDP1BTzc3Px62+/VUmXfhTQoydOwtTMDP3lUjz29kSRR+lqxEE97+GK9mIRvrKyQZ3axsxZIrC1wpIZOaBhjsrCJPuSrr15bBW6dIjH3HEDcHDNNFw/spLBJR3Jbad3zMeCCYMQ6usOtVzIHCMzc/oi3VWDvBINEpdHUk/bXF3gbWuHtE4ZuH//fs0DHTdmLBpY2+KYXouH3h5vVSMus5QSVDKkfRwd0cjCBvHRUWy86PW1g6A+emWgUtADNUCkh8/smI+WTYNgbmqC+kYNYWJkgkamZqj1zTfIW/8zHHg8NDCqBxeFmDWE1ADGRoZhsEiE039X85L5o/3jei3ixCI4CEUorOIwSZUllKpEoJ8/hPZ8ZsQTsLIZLPubJJikox3fAZHBASjYv5K1/k+Ld5QCSv3x8gC/uHoIlw8tQ0JMJFMdZBaRGZQzoDMS45vCW6+Hm0bOqntmciumVs7uymWOkuUzRkDvrMR8Z0WF+SQpHaVSwMrICBs2bsQff/75wVJaZaCXr1yFQqFAR5GQASVdWRZgeb9JCobIJNBoVFi/cPJbQEkCl04dyhqY8nQr6c28dTOQldEOq2eNZNJKOpkG4+6eXMe6sDQoR7qVuqWcw6R9yyjE8/jY7+bylp7n8nnOXYcVWmfITEwwYviIKg2TVBno3j174OjoiElKGQPKZep9KSn/pS7O0NnYYHj/bsy3WVJCCeju5ZOQM+B71gEoDypJ79xxA+Gjd0XrqCB06dAC/bu0xeDuiWzrld4aV/OWM5h0vzlj+8FbLsY0lbzC6s7le5+bBm7W1oiPb4nnz5/XnIQuzF0IG4ED1riomBOEy9D7UgJK1b6zowAtm4bgzP7VoKr8uMQQMvWkcgZ0wdhB3ZnOLA8q6cTlM4aha1IcWkcFIzbCH21iQpDeNhrDeqcwU4mk88iGmfDy0iPegc8MeHr+u/J4Uq9FkEAAhVyBJ48f1xzQEcOGw8TBiVWh4kpWd64gVLUWalTwEdhj9oRheHo1r1S3kTxCp7bNQ/eUVpj2YyZofInMpJJ69UnBZpAOJfjUSJ3ft4jpVdK/VP3pWjrXJTEO5o0sESkUMpv4fUBJj6ZIJDAxqo+HDx/WHNDMHj1gJXBEkae+Qp3EASyZUoFI387UqCCytER0ZDCuUNTIjaOlgf0tXW1iQjF7TF88KaBAiNJQCRodIwnmNjpGPSLSq92T4iGwtoOjUAZrOx5aiUXMGfIuqJS37jIp6tepg4uXLtcc0LSUFDjY83Glsfs7q1BZmMf0OvSRyyDk8VmUMkUcz5k0Ak+vHsHrS6UDGcicoiGOMD89BnRpx+xPzhYtKa3cPjk/6DzFhupUCthZWkPr3xRB6YOh9giEvS0PQU5O2PW3p6lk3rh9AjpEIYNp3brIP3mq5oAmt0+Esz0fVysJtNDdFbPVSkj5AhjZ2UOs0cOlaVvIFDp8V8cEc8YOwJMrecz7RK43qs4EiqDS8G9GmxhInZwwe0w/VpWpBSeA1OrTPjlb1s0ZCf/GHvjmG2P2soRiGbRN2yGoUzZCOg+HUu8HKx4fznwHbHfVMNuYA8mlBHQYB/TEyZoDmpacAhVfUG6vg8scVa0Teh1W6ZwRJ3TCd3wHCOUu8Ezohog+P7HNp0MfSGVqfFu7Fny9vDEjZwDWzh2NfSunYt+KyRjcLQn+rloE63UQOjriP7UbwsbMHG1bNEFWp7bo3D4WrSKDIHMSwNLCFPY2NFbEh0TgwGaL8Ph8OPs2QViPHARnDIFS7wu+nT0c7flYq1O/VbtKAj1+qgYltHNGBhwEDjhUTjeOQFJvZKebC/rIpTC148FRooJbaBwrFAczPHMMQrr+AG1ESwh4tohr3gIL5i/AiOHDkZqUDJ2LFhpLKwyXS5GtVMBf6AQpTafhC9gAW6CnHu5qNZJiI1hffXjfdHirFHB3csQ6nQuTQNLVPKUL3KITEZiezaTVxScUTgIHCPkCHCmTfwI6WCGDSd26KCg6X3MSOnjgQFgJHLDDVVPqLZ/62wtOvtFIR0c4Okmg8gyEX+oAg1SG9xqL4M7D4NuhD/SxadBFd4BzUBR4jjJk9umPDevX4/Sp0xg8YgS6ipyYWfbE2wOXPN2w3U2L3nI5fCRiNA31x5DMjpiW0w/DszIQplZitFKBq5563PJyxwUPV+zV6xCmcIbavxl7lm9yP9Dzdd7B+M6Oh3Va51L5J6DpUgnq1amDq9eu1RzQqVOmwELggKWafzw3JJUrdWokiMUQ2ljDXqqCPjIBTXqOZjDDe49DQHo2fBJ7Qx/XkYEkmNymiUiAg6sf1O4+aNYsGlpXPQaIhbjo6cYsAyrs9cZ6/NJYj11uWnQRS+BjYYMEngDNbe3RwUmI3W463GqsZ5CopuzXu6C92gVS/2aG53gn9oYmNBbmPHtm9nEqilIy6SJEQljb2FbJe1/lntKmjRvBdxJiglLOCkuZz9drkSmXwZRnD5mLHl4JndGEqvX3w+CfNhBe7XrCrUWqoWAcyLKpukkriPT+MBMqMNRZhcuebwBxBadnFXi4YZRKiRYiIXa4abHF1QUxQiG2uGrB2cV0HVXpNI0WAr9/gNLz+Ao1woVClnfuvpQe0rtAz+MhLDyiSjNHqgz0zLlzbLpgZ5HQUICjei26kc4Uy+AZl4rwXuMQ/P1QuLfMqBTIUmCjEmHXOBh91c7lugWpsaNGpYtMiv4KObKcHBDEGkkdyw85YjhnTCedG6RBMaVepKXACWNUilItPUnnRp0GzqYm6NOnT5XmN1UZKMWp63Q66O35BqBU5cc4K2BpZw9tcAzCeoxCYNpAuMUklypMKXAlqnzZ447+Ueihc2UdB5K2kpJEv8nR0VYihtZZjV4ZGchISoazhQXaikXIlksxUeLIoAVp9SB1wt1fE94adewF2OOmKdUpoV7SLLUSDvWNMHf+AtAUoLIe+ff9rjJQunHP7j1QT+CAPP2bIVl6w6u0avgKBJC6eiOg42BE9B5vaHi4AlU21US2QSu9N+sy0r1LAt3lpkG4nS2bfZeXfxwXL1/BtV+uY/369YiLbg6fZnFo22cYgsObwVEkhTrkHwkV+YUjXiIuJZ10bwLaVS6F0Xff4cSJEx8Mk5h8FFCa9mdiYoLJzipD5mgEsb1EzBS+d6sM1hiV1wBVFqqTmy/GqZXMDCMLggo+y1kBvaMQrgFh8Pf1w6pVq3Hz9h3MmD6DedqHZGej/fDJGLLmAAYt24nopAyI5GrWkaDnWovkmOSsNOSZe1EksUF2tgiPbIob12/UPNA79+6DLxDAw8GxlPSMdlZAaGsHbUgsq/be7XsZqtu7QLpEtnnrOgf/KKRoXLBM64wJzgrEi4SwcXZF+oT56Ju7Gd6x7dCmfSLOFhRi3779eP7sOQho0sjpDGj/RVvQLLkrlI1D2L1dmrWDqVDKqjsHklKqAQs0KshNGiInJ6dKrruPllC6QdcePfC1uTlyNSqWKcrYBp2a9Zmd3HwQlDEUwZ2y3wJVFqy2WTvIPXzfMqeoeyrRecFOokA9ayu4+4ei74INDBZJYNqoGfAOaoIVK1bizp07uP/gIQb2H4Bes1Yhe9VepPwwGbqgSIN0ChsHI1IiLSUApI+P698MedO8KVrcgMpWle2jqjw9sLCwkOkcMl+4N06mSrJUDAehBL7tejI9WhZg2d/qsJZQaD0R2HHwW/AJqsInDAqFEn3mrTPAJKCDl+9CSNs0dM/sheUrV+Fg3lF0TE1Dv9zNyJq/AQHxidAEt2D3pJdmKVNjhFJeqjEiISCLwcPaGh1S03DjRtWqO/H4aKB0k7YJCTAzNcUilzdSSsqdxuld7flwi0pEeObYtyBVBJQ6AWXP0W+pxh2e/sHoMmVxKaAE9fvxcxAQEYWFS5bi7v37iGwSzqQzNXs0lF7Bhvupg5pDJFGwGsS9fE46B8gkEAtFbHo5zVypinRWG9DzRUVoWM8IEUIhM4wpkxRoS31vWWBzhPUcDX3LDEPBygPGPE+NA1mvqrzzUo8ASMRSaPXuaNWpJ7pOX2YAO3jFbvhHt8SPP/zIJiMEhDbBwCXb4eEXDHUJc0ns5oM4iYQ5dMhGpZ4XvfzlWmdoaNijdQKufORc0GqRUIq+69+vHxoZG7NRQ8okQW0pEUOq9URYtx/hm9j7nUAJoiq4RYVAXZq2gXNgc0hkKoidhHDRatEirRt6zFzJwCaPmISgwFBs2bYdzRNTEd4uDSq/poZn0guzULlihEqOk3odNuvUGCiXIpyGOxpZsiHozl264s69j5u2WC1ASdSvXL4Md3cP6G1tsUarZsb+UKUMSr4D80X6J2UZCleeBNIx59D4CoFy/9FGtoE6JBYSuRqOPB5kYjGCY1qh48gpcPX0Q1hIKHyDQ+Cs94U2KtHwTKVnEHROQgxXytFUJIKNPR/GtetAYGnL4pnatk6ApXkjjBw9Gk8/YrGCagP6+x9/YOXq1fhPvXqIEQuZsU96lGfRCJ6tO1fYMKkCm8Ll72qpCYl6L1AD2KbtoPKLhETuDL6tHexMG8LB1obtk2vOOSQWcq8AKDz8oNLo2Rok5K5rYGaB/3zzDSKahDN9ST0+mkP/9Okz9MzMhE6rxfH8/H9Xh3IKnGIrKXrN3MyM+RTX69QQNWoEXUwKM/A5GP+kiSBHiKNQCqnKFXKNO/NZyv2jIPNuAqnOEwqtBxxlSjg5CmFvZQNrY1NYGZvCxLgh27cxtYDAxhYOvDdOY4rlFzo4MicyLQTDs7SGtbEZeBZW4FvbsiU4Ll2+wqKVaVSz5BTFo0ePwqtxY8ydN//fiW3iQJZMLxQXIyEhARIrK/STSiC2tIIqNP4toK7Nk0CGvNI/AhKJEo5OYgZFzHOAWCyGSqWCp4cnWrZqhaysvpgw/ifkLliAtWvWYNPGTWyjntqKFSswe9YsZPboCW8PT0ikCrj4hEPjEwZHgSNCAoPYtUkdkpCclIzrv/wCCl9fv2kL+vbJwr69+wzS+OTpM7RJaMPWQPlXYptKgiy5f/z4cUQ1awaFjS2cbGyh8A1nQEu67mjfNSaFeaH08emgzdLKlq1ic/r0ady7/wAvP2A1G4qinvnzTDSObsO8XGR+CZ31CA0NZdK4ceMmZKRnoODcOezetQsTJk5iTuyiwiLcuXPX4AgZ1Lc/dGoXnCsowF9VMO6rTYeWBEr7hw8fRkyzKPCsbCDTeTKgHgldDI0EVXuCSs5e8pXSZmQtxJMqNghkfy5ZsgQeUa3ZaEBA+mAI9b7w8vbGLzdu4sq1X5CSnIJdO3fhz7/+woXLV7Bi+Qps2byZzZ9/9ffs5JUrVrCImPWbNtdsbFNZgOX9PpKXB39vH4gl8nKB/qNL33jt61k74eTZc4YqWN49KzpGQNeuXQuVVyDc4zvBLTYVIr0v9FpX5B8/AQJGqzksWrwEZLhfv3kLNOnr5MmTDDgHNC8vD2q1GrNmz2HXVfS8io5/MgnlHtitcxcIBQ6VAmos02Hjps1VBrp9+w5IXNxBDhBdVCJkXmHQKp2xedMmds+kpCRMm/Ezg3vll+s4fuIkjhzLx7nzxaCJvgQ1/1g+3FxdMe/f8Idy0N6VDs0ewoZsaaSzbJUvK6E8z0D8NP6nKgPds2cPpFoPA1C5TziUEilmz5zF9HGn9E4YN3YsLl25CgJK241bt9l2++495gKkl0ISSh2EP2synPFdEEueG5MzBrxGVpWSUFVILHpn9qoeoNEdoA5uwSyHHt17sCreK7MXKCbrzLkCHDt5CnsOHsL27duxZ+9enCkoBC2WMGzoMDQJCcXFKk5X/ORVfvrUacwWrExPiSQ2yD+gykCPnz4DPl9ucNVRj4pnbYPmzaIw8seRkMvkbO0TWv+ENi8PT+Y7XbZsGdPdCxctZjGvP+SMxrMqhDKSIH1yoDQv3d7cCraWVpBrPeESngByo5Wt7tzvRpZWoKk6JaW8MvvUKJ08cxYahQou4a3BuqiBUW8Mfj4fFOmycfMWJpmHjh6Do5MT2rVpix7dejBzytfbB5aWlkhPT8cvv/zywc/n8vjJgd6jOaDJKVCqVBA5OMLW2hYynRfrj1OhqfHgYFLayNoJp86c/eACEdCLV64iwNcPDmIlVC56prtFjk7o2q077j94UOqet+7cwcEDB7B0yRK2bdiwAefPF7OGiYNTlfSTA+UydbawCD8MHwF//wDIRGLY2PAgVuuh9A6DJqg56zURUDpGPSDuf5VNOaDhoWHwCwhAty5doZBIkdi23UdJXGWfz11XY0DpgeSEKCgswqRJk9loJfW5TU1MwOM5sF6N1M0XMrmaLfbCZbCyKZk91KhENW2GHXv3sTWbSXcO7Nf/g19OZZ9Z3nU1CpTLwG+//Y4LFy5i7rx56NmzJ2KbxyA4IBBBfv7MKxTepMkHQ6CFr6k3RKtE7D+ch4LzxcxiIL8C99yaSP8VoFzBfv/9DxZ2XVxczMbByQdAI5YqZ2fcun3ng0A8fvKU2ZXUG9qxZx9bpYFW4vH18wOtgcI981On/yrQ8gpHc9ZpBfBt27Z9EIQnT98AJa8TNTC0HPuC3IXQarXI/wj/Znl5fNexzw7o3bt3oXd1Q/agwR8ElIZhKNihd6/eWLd2LesN0cq5IqGQ/X4XhOo899kBpblBmT17okl4OMg/+SGFJaA5o3Iwfdo0bNy6HT179GBA165Z+0H3+ZBnlr32swNKniBaPdFdr8eJ4x8WX0RAydlMa9rTsDZNTPu+UwbIV1q24J/q92cHlAp69vQZuLvqmcO4sgWnSLnrt26D/Jl169bF5MlTcLkKEciVfV5F132WQO/du4f09E4ICwvDtq3bUHCuAHfu3gUtslWyIDS5lY49fPwYly5fRt6Ro5gzew6T0EPVsCBLyWdVdv+zBEoznekDAVRthU5OCA8PR3JKKnpnZWHUsB8wZdIkzJwxA7TQ67Ahw9CjR090SEpCXGwsUxV2trZV9hZVFlxF132WQCmzN2/cxMyZs9jQbouYGPj6+EIqlsDRlgeBHY+tVEa+AYmjEGqlCl6ejdE8Ohpduvdg1b6iAn/q458tUCo46UXqUl6+dAlnz54FDU8c2L+fDbLt2rmTpfv37WdDGWdOn8alixfZ4B6ZUJ8aXEX3/6yBVpTpz/n4F6BVGCp+1wv9rIFS1f3jjz9BfX6q/r/99lulVvem/7EQmyqMCb0LVmXOVQooZZBWL/z1199KbRSI8DGxlO/L4NNnz3Eo7yhyFy/F9BkzWC9o196979WP+w8cxIgRI7Bh8+Ya/wJYpYDSitq0wveC3F74nDkAAAd1SURBVFzMnjvPsC1dvoK5yd4HpqrnHz1+zIaVw0LD0MCoPmrXqoXROTnvBPrq1WsYGRmh3rffQcDjs4arqs+vyv8qBZT61/PnzUN002asYPW+/RZCRyfkjBqF0+c+3VcLuALNnzuPDQeb1TfGmPcA5RY2tDA1g0osw+7de975ArhnVFdaKaDcw8iLQ0ELVqbm6NCuPW7dvFUjmaWPVynFUpgaNXgvUMrr9m3b2YxmCi77kPgorpwfk34QUBrrkQpFbNXvjqmpbNZF2YeTN56igC9dvcrcaRXpWGo0yIdJ19M9yLNE/7lfzjofHwqU7kd6n+5ftrtK52iImM7RPsW10oDdzdu38fp1+V+xoaGbW3fu4tqNG3j+4gVevnrN/k8NJt2j5FZtQCnKorCoCN27dQeFvNASmHFx8YiNaYF9Bw6xh9KiKPGxsQgJCkZoUDBaxLRgVZK+9hUQEABXNzc2iJe7ILdUJssCJVgUHde+bTv2P/ov+UEPHs5Dq9atERUegXD/YERFRYOiSWjl2qnTpiM0IAgRAcHw8fbByB9HMZ8pqTG9uzvbMjMzcfly6XVGNm/ajGZNwtnEjKlTp6Fjx3REhEdg/rz55U6urTag9CUvZ4USzioV64dTDOagAQMgEjjA1tYOp86ewx+//46DBw+iaZNwJuVSkRhh4eGYOHEic7tZmVvAztoGGo0GR/L+Wb27LFCSCLI65syZw5YD+vnnmbh06TKbrHXlyhX4eDaGrYUlxA5OWL16NZNWivckpzXlx7qRJXwae4FCc+blLmSLHZjWawBrKyv8MHKkISSchplprJ6+I3r0WD4brqGPEkZHN0ef3n3KXTWnWoCSdNJHUoy/qwe/gEA2/ECFpg+XqiQy9m3OtJRUJnU09jN4yFA0qF+fBSGsWb2a2ZZ0D1pLjxoeGv6lZTS5qlQe0AvFF5CWmoazBUVvxSARONK3tNQ7AeXus2/vXrjrXGFtboFmEZHMrqXnUoAYBetaNDBBSvsO7AOE9J9+Wf3YtRIHJ2zdssVwn0OHDmHypMm4d/eu4Rj3jHcCJR1RUgdWpENJH9aqVQt8Gzv4e3mDzKltu/Zg1KjRbAF+4wYNIBdL2MNJd2UPHc6sBbVCiR3bdxgyNW/uXDT4ui4bt6cMc5nkgBLsUSNHsr69q8YF2YMGMSjcdVxKA33lAd2/f/8boGYWSE9LN9yfJq81DY9EIxNTVrVpAgbda8zo0ew+VK5GDUzZS5g9Zw7OF1+o8KthFQKlzzZu3LIFuYsW49atN615RUDPX7zEgFJMu4ebnknX8mXLsHLlShazSXGbFMZNmfwYoDbmjZCWnAovdw/25TCFXA76WkLZD/dVF1AaAVAqlWxtElsra6amjOsZQSmTY8GC3HK/eFMh0OVLl8Hc1IxJUkpSCoNBa4GQy8y8oSky0juBBtQIEoUEkoTaWVsjKCgIxRcqXmj/Y4BSVU3u0AEzpk1nVdHG0goREZEoKCxk+ahuCT196hSu37yJwYMGISg4GG46V0iEItg2smTtxfnzby/yUiHQfll9wafP6ZqZoVWrViw8mq13Z2kJ4/r1MXz4CMMndEgPuWg0sDY1h06tecsfSbbgtAlvqvDHAOXsUKo9rVu1RiMzc7YY18ABA0o1EJWR0K6duxpeQkVVPiQ4BNeuXWM6mmL+9+zejXYJCWxNKDMTU5w6+fa6ThUCXbJsOSxpjpGHB8jXePv2HXRKS4dR3W/h5+OLQ4cPGxoDMmNWr1wFB1seTBuaICoikg3dFhadBwUv9O7dB507dWEFuH//AQveql/PCA529li+bLmhypL5VPfrWhDY2GHQwEEGu3DWzzMhFjgyfdYrM5M9l8bvXbU6NGxgDJlEAtK/L/4OQaSBOYLvZGfPGg8u3JsaSbVEDgtjE8S3iDV8Rv3M6TMI9PWDeYOGLO9Ff0s8n8dD61atcOnSJQN86h02MDJCZHgEfrn2dpRehUAfPnyEESNHsZlpWX36sGEIZ6WKKfO9+/a9tR4HmTFLlyxFy7g4JjUSsRg+vn6gYNfJU6aC5ta/eP4CkyZMQkLr1ggODGLfqOuYkoazZ8+Bhnop6oO++UkBr0mJHbB6zRps2bwFXTt3YaZWaGAwOz5tylRmnE+fPgM+Xl7sXvTfyRMn46dx45l9StfSx1fp23ekvw8eOMhCc5qFRyI0MIiF7IwZPYZJNsWOxsW0AP2nVVw8i165f+8eW5grKysLvXtmMhOQPugaGhKK9okd2Nx8aow5NcOlFQKlC6j3QmK9a/cebN6yFceOHWO9o7KNAHczcq/RW6PrDhw4wDaatsJ1/8gFd/HCRRQVFeHChQtsO3fuHB4/ecJWUKCqxx0vPn8eN2/eZA0i7XPHKaXQHaoVjx49Bk3cpWOUsnsXFoFMKu764vPFuH37Nu7fu4+y9yEdSFC4a7mU8kcTwihv1BmhqThkWh08dIhFoVAjXdL64cpP6TuBchfS6CLpSe73/8WUXuCff75/aKVSQP8vAqxqmb8ALePcqCpI7n9fgH4BWtpdxknG55L+Px9A3ac8IOnDAAAAAElFTkSuQmCC;align=center;" vertex="1" parent="1">
          <mxGeometry x="210" y="290" width="61.09" height="80" as="geometry" />
        </mxCell>
        <mxCell id="dcIogtWbxeqWuTG1K_oC-8" value="&amp;nbsp;4. Create mssql rds instance" style="edgeStyle=orthogonalEdgeStyle;rounded=0;orthogonalLoop=1;jettySize=auto;html=1;fillColor=#d5e8d4;strokeColor=#82b366;fontColor=#009900;fontStyle=1" edge="1" parent="1" source="dcIogtWbxeqWuTG1K_oC-5" target="dcIogtWbxeqWuTG1K_oC-7">
          <mxGeometry x="0.034" y="25" relative="1" as="geometry">
            <Array as="points">
              <mxPoint x="786" y="240" />
              <mxPoint x="1030" y="240" />
            </Array>
            <mxPoint as="offset" />
          </mxGeometry>
        </mxCell>
        <mxCell id="dcIogtWbxeqWuTG1K_oC-64" style="edgeStyle=orthogonalEdgeStyle;rounded=0;orthogonalLoop=1;jettySize=auto;html=1;entryX=0.5;entryY=1;entryDx=0;entryDy=0;strokeWidth=1;fontSize=14;fontColor=#000000;fillColor=#e1d5e7;strokeColor=#9673a6;" edge="1" parent="1" source="dcIogtWbxeqWuTG1K_oC-5" target="dcIogtWbxeqWuTG1K_oC-7">
          <mxGeometry relative="1" as="geometry">
            <Array as="points">
              <mxPoint x="791" y="384" />
              <mxPoint x="1030" y="384" />
            </Array>
          </mxGeometry>
        </mxCell>
        <mxCell id="dcIogtWbxeqWuTG1K_oC-70" value="4. Create databases" style="edgeLabel;html=1;align=center;verticalAlign=middle;resizable=0;points=[];fontSize=11;fontColor=#990099;fontStyle=1" vertex="1" connectable="0" parent="dcIogtWbxeqWuTG1K_oC-64">
          <mxGeometry x="-0.2774" y="2" relative="1" as="geometry">
            <mxPoint x="51" as="offset" />
          </mxGeometry>
        </mxCell>
        <mxCell id="dcIogtWbxeqWuTG1K_oC-65" style="edgeStyle=orthogonalEdgeStyle;rounded=0;orthogonalLoop=1;jettySize=auto;html=1;entryX=0.5;entryY=1;entryDx=0;entryDy=0;strokeWidth=1;fontSize=13;fontColor=#000000;fillColor=#e1d5e7;strokeColor=#9673a6;" edge="1" parent="1" source="dcIogtWbxeqWuTG1K_oC-5" target="dcIogtWbxeqWuTG1K_oC-10">
          <mxGeometry relative="1" as="geometry">
            <Array as="points">
              <mxPoint x="766" y="410" />
              <mxPoint x="1197" y="410" />
            </Array>
          </mxGeometry>
        </mxCell>
        <mxCell id="dcIogtWbxeqWuTG1K_oC-82" value="5. Create services" style="edgeLabel;html=1;align=center;verticalAlign=middle;resizable=0;points=[];fontSize=12;fontColor=#990099;fontStyle=1" vertex="1" connectable="0" parent="dcIogtWbxeqWuTG1K_oC-65">
          <mxGeometry x="-0.2669" y="3" relative="1" as="geometry">
            <mxPoint as="offset" />
          </mxGeometry>
        </mxCell>
        <mxCell id="dcIogtWbxeqWuTG1K_oC-5" value="provisioning-service" style="rounded=1;whiteSpace=wrap;html=1;align=center;fillColor=#f8cecc;strokeColor=#b85450;" vertex="1" parent="1">
          <mxGeometry x="690" y="305" width="120" height="40" as="geometry" />
        </mxCell>
        <mxCell id="dcIogtWbxeqWuTG1K_oC-7" value="" style="shape=image;verticalLabelPosition=bottom;labelBackgroundColor=#ffffff;verticalAlign=top;aspect=fixed;imageAspect=0;image=data:image/png,iVBORw0KGgoAAAANSUhEUgAAAGQAAAB/CAYAAAAZ82cMAAAgAElEQVR4AeR9d3xcxdW2sa0uS+7GhtAhlIQECBCqq9pKK8mVYrqBUEwLLWAIvZpQQnHAgUAooRcDNu6yLcta9d5Xdcvd3dvv3dWfz/d7ZnWNLMu8Sb4veT/wH/O7u/fOzJ05zzln5s45c2bM4OAgmCzLgm3biMViexPv8140GhV5nLw/1iv7xr7wyn4xqaq6955pmuI38zh9dvIP/28Yxl4aOXlZp67r+91nnXwH6evQbWSdzn1exwz/44DBilmIlTgNGZ7vx/rbAcLpp0MYEs0BSJZl8dvJw6sDAPvNfPzPK8szaZq2H71436nXyefUSbryN++PpOVeQJiBGZmIqFOAL+bvkQV/rP9JBIeY7Cd/k3DsIxnRYUKn3859XocnPicwBMOpj89Z3vnPZ8wzHBCHvk79I+m4FxAng4Mqr6yMjXSeDW/Qj/H3cDAcojlEdAjlXAkW+086sBzz8cr/zEO68Dl/sy5HSpiPz0hoJ//wvE59DtMfEBDnpayYhRRFES9hZU4lzPNjT8MJyN/sj8PJoVAIVFnhcBiRSASBQEBoC9LA6TfpQmI6V/6WJEncIzAO0CQ0f7OsUy/zsn6+17keEBCizQrYmL/+9a947rnnxLWlpUVwgvMip2E/5iu52OFuEuadd97Bn//8Z7zwwgt4/vnnRWL/X331VWzduhUDAwMCNIKwbt06vPjii3vz/elPf8JLL72Eb7/9Fm1tbQIYEpz1k5ZlZWV4/fXX8cwzz4h3fPbZZyBNCRIZgW0ZDso+KouVdHZ24qSTTsKRRx6J888/H19++eXelzggEJx/Jf0r5RwO/lfqd5jlfyrjtMNRP/xPos2ePRtHHHEEDj/8cBx11FHi9zHHHIMTTzwR55xzDkhESkFvby9uvvlmkeewww4T+ZifeU8//XT84Q9/2Ae8L774Ajk5OTjhhBMwc+ZMQdNTTz0V11xzDerq6gRobMM+gDiN5JWAvPHGG0hLS0N6ejomTpyI++67D319fXt1J8WOYkjOolgTaTaWHeMzos5nfr9f/Gdehxup+py8Pp9PiD2fswy5j/UFg8G9eVin8w6nXuc/r3yPUw/BcNQIyzll+Zx5+R5HRbGvBIVl2OZf/vKXos/z5s3D1VdfjRUrVmD58uXi/oQJEzB//ny0traiu7sbV111FSZNmoQLLrhA/L7yyivF7ylTpgig1qxZI9pfW1sr6mL5X//617j00kvhdrsFMATnnnvuEf122sT2MI1xAOGD9vZ23HLLLZg2bRpcLpdoECvZsWOH0KckKIn7yCOP4KmnnsKmTZvw2muv4d5778Wbb74Jr9eL3bt346GHHhLPyVkkEssRuIaGBrzyyiu4++67RWJZliEI27dvx/33349Vq1bhj3/8o/hNZnj88cfR1NQkCE/ifvzxx6LsE088AafzzjtIBJYlU23evFm0gXXyPxnB6bzTZwJCoMm1JBz7QHXCNvX09IhyfEbGrK+vF9x/ww034OSTT8azzz4r8lJqKioqsHTpUgEUQWVeqqrf/va3OO2004Tqb25uRkdHBx544AFMnjxZSA4ZxRmf9wOEDWYhZv7FL34hVNVll10mxJgdIieR69hQvpQccfTRR4trZmYmMjIycOONNwrx5DNyETmDoJGTSayFCxdixowZmDp1qrhS7Ak4pYm6m+JP7mF51peSkoLjjjtOlGXbbrrpJqEmWG769OmiHhKrqqpKEJzqlcRi/WwT+8L3sS4CxT46BCAowwGhRvj73/+O/v5+kQgKmef4448XgPD9vLds2TLRBo4dDkFZJ/tJtcd37tq1S4BEpibQixYtwnvvvSeYjgCSsdiW4UyyDyBsGDmYgw+JQbHs6uoS3MmOXXfddQJdSgfVF/Ui1VphYaFoCDn50EMPFUQg5+7ZswdFRUWiLnIEgeRE4eyzzxbSVFlZiQcffFA0lqCRKzmjoVpg/RxkZ82ahdTUVKGzOaiSe6mrqT7ef/99ITVsFwlJRmDnCAjVD0His8bGRqEqmOfCCy8UdbMPIyWEZQj+z3/+c8ydOxdnnnkmzjrrrL3McdtttwmQCADVGRmR0s26qAoJCNtI5mG7P/nkEwGeAyg1DoE55ZRTBO3I4JwAOGXZnv0AodqgiLEwZwQkDolw7LHHis6UlpYKTifC+fn54sWcXVByPvzwQyGa7AyJTRVy++23Cy4m4UksivWWLVuEOHs8HjHjIOEo0iQcO8W6ampqcMYZZwiu5oDK/9TdJArzr169WnAmQa6urhYSzDaWlJQIdUbizpkzR6gscjvfSUBIbHL4DwFCpqJEkCkJECc2K1euFG3m+0gjBxDOwFiXAwqlnIM3JWTjxo1CFRKkDz74AJdccomgIdUfpYhMfuedd4pJAlXmPoBQOkiMnTt3CjXDCikh1JG///3vhQqgyJMjKGrkYIoiuYT6nBUSEBLxoosuEmqPjedYQLVCVcH/FHmqBEoQO8X8BJ+NpDpjHkoKCU81Q8JyJkJ1x7Ht8ssvF7O/d999V0gzCcEZ4bnnnis6+emnn4rZEMstWbJEqA1KPQEld/I9lEJy5UgJ4TOCxvGT011KPtuel5eHr776SpQjkxEQzpAIFJmR99gO0oBMRgkhmASE4wXHRb6fYHH8pORQY7A9ZBBOlVnHPoBwoGOFBICE51SPep1SQJ1P0SXhqBYoZpQQNpSc5ADCK8V88eLFQpWw4SQ8CcsBno178sknBYgXX3yxUI1r164FxwKqLEoVpYATBXaKHE8VR4lh28jZJATVATnT+WCjZFGNsQwHUU4zOf3kAEuJJiHKy8sFR3Js4TsOBAj7TrApzZQ29oWgFBcXCxVMhqHEkTE41hEQAk6GIWPwG4Z0IqGpDT7//HMx1pL5KKVsC/PzGd/FPrK9+wFChElkqhsiR8IRbc6W2BmOKyQ2Vcu2bduEhCxYsEBUSMQdlUXgSAhyOTvNmRdVADmCnH7FFVcIwvCjioMeRZaiy7r5Hg56JCbHpmuvvVa0gUCSCQgIB1GKO6eP7CA5j1JIiaZEUD2wgyQ8GYl1kljsCycYZDQSju2lVqDO5pVtpYRQHb711lviP4m0YcMG8R1GUMgoBIOMwH6wX1RDTz/9tFDvVGukD/tzxx13iLwEleMWweOg/uijj4rZKftGaeQ7Odby/c74we+RMRyoOD1lg8lp7IAjQrxyLOHMgtzJmRCJxIGVKov6kRVSZZGwfDGJz3sc6CkBlBASguqAsx8Cl52dLVQWJYgN49cvp8LknOTkZJx33nmCQ0lYzvO/+eYbASK5k3qazEO1yQ85Sgifk/i8UmWxveREEp/9IbEpiWw7Jc4BhKqanE/1SdDefvtt0XZqDUo5p/esn2387rvvRD8oqSQ8VRPbT6lgu0lkag5HRVHSKM0O2MzHcszH3wSO72Zb9vkwZKPJ6RyEyYUcJ9hQZnQGWs5qyAV/+ctfBPrkGH6VkguYj9LEwZvczzGGHSJILEN1xhdTKqgWOXWldKxfvx4PP/yw+EDilJHqgl/BBI55OJZwzu+8h3WQ66kqWJ7PyXUsy2cO8Sk1HO84S2Q7KF2sj4xBleEMwnzG/pF5OM4xD9vI56yL9zmd5gSHzziWsC6q2uuvv17M4nglx/M5ic/vNZZjedKFUsuZH9tElU963HXXXWKWSEZ31NU+gFAKCAK5mA1mRWyUI9L8T+5jBym2fOYM7nwxy7Mcv0/IVU5H2RiWIafwxew89Si5lFdyKp+xTtbHOvib5ZioRvnf0b2sg3WzLbzH9zEf308i8BnrpFphXWwbE9/L+pmXedgfXp3+sTwJzedsP/+zjJN4z2mH03enbSzDZ0xsH5+zHOtw+uyUIaMykSZsJxPzDQdDqCw2jA/IZbwO12fOM97ni9gZBwQSwcnvdNL575Rjx1mOedkw5mOe0ZJDUOZnXhJ1tDIO8Z06CCp/My/fy3qYeM/5zyvfTTCdZ+y8026HiM77mN9JzD/8vtN/5/3O1XmXUz8JznL8z8R28r+T37nuBwgfsJNMTsOcyvnMISgrdQjrNHZ4fv5mHj5zXsLyTt7hDWBe5z4bzt8sy99764gNivvkNL6X5fmMV457Tj4HZOYhsXjfyc96+XxwqC4SxCES2zi8Tt532jT8ynysj/XwPvOxnU7fnb465fl+5mUZ/h7efqdehxYs45R3rmItixl5gxUw8WVOA5xGOP/ZOT5n/uEviEVjouPOfecqGqfpsK3v7fWsg+9xGmaZ33O003mWZ4PZIdbBvHwvE9/L8nxOrnfq4X3+Zn7T+J5BnHc57R3etr39GpIY5xnrYTmWcZhGlI/GpcfJ59Rp2/G8zn9eWTfrYHm2lfeoiXhl/axjZBrjvHTkA/53Okdi20TesjFIwgviE0RWGkX8uS2uJLaTonYUTPzvNIJX5jcpzkP6lg0WXD2U1ykvQBwiwF7Ah9UfvxcHh2WYn0A45dl+vo/32A7md9rDPFECTc53mIntZF+HpIpXQbihd5JxWJeTn7TjO6MxgkFJjCJqRcW9ONBRxAbjxBf9GwLBYfjRaL7XHjLaQ0E8QUATMVuHbWqwDA22ZSAWJadS3WiIseMHcbJjKqKDGmK2iahmwdYMQSN7UEd08Htvk9FoPPLeAQHZCwZFL6bCjoVgRkMw7DDMqAo7asCK6uLKlx7MyYzasCgdNNwZJkxdhWlrMAd12P8vABkOBkXWMHUYpgw7KiM2qCI2aMCmrrYGEbWogg5uCTGpymxqDQ2DMVmkaIyg6LCGJgPDaer8Hikd/L+fhDiZeSUYTLZhwdZNxDiYWwYGqa6iNgatGAYtC4Mx9aBO0aiCqB1B1AqKFIspQqVHOVkZNpkZTlvn90hQ9gLiZHCuAoihGYtlmLA5AIsBkAMhvym4SikLrohFLQEQQTr4Egd0jqX8SKYKH5o9WjHYWgy2Mfp3l8PsDr2d66iACDA4dbRs6IaFkB6ET/GjN6LCK1nokix0SyZ6RDLQIx3cqVcy0CuZ6A6Z6ApZaOM1LMOv+BHRQtANG5YdFWreAcK5OkA41/0AccAwTBuqbiEsm/h2l47fP9GKs7O/w/Sj1mHW0aU46gQPpv1sAyZM+wQZ0z8/qFPm1Hcx9fCPMfOEjTj0pPU44byvsPjGErz4Xhc8zRrCigXNiDM4p8Px6XR8Su0A4Vz3AqJHw4jZMViyBU2X0O4bwGtf+zH3ph5MyalE0jwPUnM7keEKIcOlIS0/jLQCH1LcPiS5JSSOkng/qfC/m1LcEtIOkFL/Q+1JLggg3S0hOcePTL4jqwMpeQ1IyirFz5fW4A+v+rGtMYSBcBiarkOJ+GBFNehifPl+NYOgCEAEOjY//mz4wn5sq+vDVQ94cOj8LcjM3Y2EvCaMzevFeJcPCfmSACCZL3b7kVDgw/gC/4GTO4DxP/WU58P4nD6Mz+pGQsEAkoslpCwMYVy+Dxn5LZh0wbeYffUWfLijF039ASEtqqrBsiXEYiMAcVSUrdtQTQOb6iTk3uJB6gVVSHH1IbWoHykFEpJdEtJdXmQWtGJiYTMmFTQhI6seGQvqMSmvafTkasbk/3KalN+MiQWjJz77T7RniqsVE/MaMLGgDql5VZhQ0IaUPD9S80wkZgeQ5upD+oIGnLp8O57/ohtexYKsR6Aqvv0B4ee/rhtQNQ3bqgbgur0Ciee0IrFYwbjCbiTn9+LES7ow58ZGLL67Dlc9Uo2bn2vGHS90YOVTLVj5eCNuf6Z19PRsK+74L6fbnm3FLatHT7eubsXt/4H23Lm6E7c924KVzzZgxeNVuOqJVmSvbMWvljRien4bktw+JOaHkJbdi59ftA2vrK9CbzgETY0P9M74IVQWF70isgJPZz8uvrcMyWd7MD4/jPGFQUxwe3HWjS145r1WbPb0oNWnQdINREwDsmVCpdchE1dA/z9JKg1MXJQcJfH+f6SdpgFFUyFrMiKmDp9moazOj7/+oxaX3LsTP1tSjZRcH5ILdCQvqMAvL/0Y72/0wh/mQD9CZWmajqAUxuMfeTErbzvSc3uRvmgAma5GnHN1Ld7eOACvX4KmKjC5jmXoiJkaYpaKmCkjZqqIWXo82UNX5/+/eR20dDDtrfdf+O2U/W9eY1HSIIKoKSNqKjAUFaZmIRKKYmdNANc+UYajiiuQIiZBfkx1tSL7dxtR1csJ1Per4EJCFEVDv0/CnOvqMWlxJZLcLUjNCuDMK5vw/uY++CQ/bNuPWJSGIBpY4tM2K2rDiJowogbsWPSAiWs8/83EtnBcHG05JzrUzv/X7TFiJsxBG7rFJXsawpx9IzpMS0Vthx8XPbgJme4uJOYbyChQcUzht3jx404xJY4OM4iN0TUTr3zSgsMX1yOxoAcTFgYxs8CDVX9pQnfYhGYa0HQTum1Bt/wwYt2IxeT4srYVhaZasM0YdC6qccExpiGkhaByuSUWhRY1oURjUK0oVIVG/YjI06fTjsGl8Rg0KwY9ZoMdI9BRO4aYLcE2g7CjOizaamgfidnQYwbMmIJoTIZuSmLss/h+nW2IITZkEnBMA8OvfEZQDpT4/MBpEDHagEZJJCiTzeV9YQfhshMTud8Ua1pbyv347aXbkJLfjYRCC2kL25B9xy609KjQoxHYURODUQtjAn4FNz1dhomLGzHWFcGEggBOLPocnm4DqjCuqDAtGlWYuNUtvo5lWVwuiCAW49SNAGmwdA26qgubg27QymfCMlQYtDGbNNZEERNWNBlK1IYa8cMwtHgnBmMwYyY0Q4dlUq/SPYYLdrRommLVgFNEcpyhm2KNSFUlaFpg6P1six+DgyEMDtKTI26rGXml3eJAaWTeff/vb0xy1qGGD8ojf5PQdkxHd7+NGx6rxpSiZox360gs6sOpl+/C5rIBaHYEtk1AbIxpqg8g9/pNSM0rR5rbxBSXDzesrhPLI6aqwVDZ4QBsU4GlRBEzY4hZMUEQXea4EoGq+2DoKmLkUCbbgG71wTB6YAYlWLYMI6oJ482gHi/vDw7AMP1DxKQ1bWhwo+VuMG7EoqTEwaHhR4ephmDrEcS4aMd2UJIIGhljaF2NC5/7EnJfYA4EBu//UDmH+KNdR4Iw/H98xVcV3x7vbQrjsEXlSHCHxffbUe5yrP1HJcIGbf00/kUxxuMJ4KylJUhd2IzxWRZm5nix+r16RJQQYiq5NQxZkxAM6YioNsK6DcWIwLTl+Pq/HYVJK5sRgy3HoEncHxKGpAUwoPZCCcoIhXqhR6W4YUuPIarFYFomFMuAZirQNQmGHEbU5DRwUOhjir+uR2HolL6IWMi0bQ26aUM2ogjKBlT6AxtUWwNC2mzVRkxI14GlICoW/7gAuH/6IbCGE3nkb2ddarSrxTHWjBv1qnosHOFej0R+SLv8mJlVj+fXlCHMIUGjPWUQY8orwzjzkkYkFnmRVmBh1oJ6vPpRFSKRAegRFUHFQm2PgvUePz7Y1It3N3jx1U4vatt9kDnzimoIGzoipgUusnmawvh0axBrPx/ARxsj8FSH0B3R4DMloSsNWYUcsVDi8WJDZQg7av0IKZydqAIQqjWOO4aYDlqIxiQYpg+yqaEjYGJTZQgfbu3H29948V15GJXNYUiyBIPjm0Lp4YA+OiCjgTD83g8Dsu/0dDgoowHh3DNjBgzdgGXI6JBMHJXzBZILBjAuvw8zs9rxwhoPZMOCqtC+FMWY3dVhnHl5D1IWS0iYH8HhOeV4/eMGSGEJkmJgY10EN65uwzlX7sKpi7fitIUeZF/ajFvvr0ddswbDlhA2fWgOqlj9STvcd5TiN5d6cNScHTh3WROW3F2Cl7/qR73fhmLJCEcCKK2WcP7iN5B1XS2u++NmNHaHRINt1YTKr1iLhh0LFqeRsTBUS0d5u4bH3ulC3q3l+OXiEpyYtxNzL27AxTeWYrsnDEWnGjMRo417FO537lFXHyg5eUa/HngZ3VkwHO2qR3WonPBoMtp8Go7J3iDW/w5xd+DQvC68sKYSsmFC0+JmjTElFX6cflkP0oo1pLuCmJm9GS/9vQEh1US1N4xrV3vws8JGZOY042cX1eHky7pw9NwGnPjbj/HF5n5ETAn9UgTPf9iJky7ahYm5NcjM7sARRa04zFWGCdklOGVZGV75JIjuQBhhPYwPNw9gylmfYfrsLpy+ZD3K2+lmw+8bE4Yehc5pK8cPg+s9Jtp8Bp54px2/WLYL6bNrMK3Yg6OX1eCY/GpM/sUreOndWkh0pDMlxCwai0h0uuPE03ACHwgM3h+eb/hv2jhszv6G+ZTZXE7fm0bfc0lrYSSqIGJpsEwDzT0qTsrfjRR3AIcUNWJ6QQeeeakMYY0OdrSrqBizs9KLMy5rQ3KBjMwlNmZlVeC1j+rQI0l4b0srjlu2ESnz6nD8kmrc9Vo7Xv82gIff6sGtT+3E7kYfFC2M9bskXPC7aqTNbcOh7mqseCGAB97pww1P1GGmuxzpWQ3Iuq0TG3eHIEUC+Ly0H5nneJCZ14eTF23H7pYh5zaT7qsarBiJIwuLpGFEsa1BwjnXlSNzbiOOKqrC9S80YPWXXXjsvTrc8MfP8OW2VqhGBHqkD5Y2ACUkoaPLRFufgYhiQVc49kSgGSYiYU1IvqKEIGsq/JoJKcK9KYZQwf6wAkUzYaimuAYUHZKioi9iwbAiMAwdUthAy4CE1j5uiTYRUBXxeWDJthhnJc1ESI1A1jR0qxp6NR2ybqC6Q8IJOeXgqvNYdwemumvxxIulCGuq8MDhDHbM7uoOnHlFE5KKuJSu4bCsdrz8USV6JBkvftyIjNwyJOS1IvuOFngaFSiSBH/EQGtAhV810D8QwcOv1mDGolqkzOtEzo1VKO830BU2UdWo4+JVncjIbcE0dzUef70L/T4/PtrcjAm/rUSKuwOnLN2B3U3xbxl+z9BuHx3UERtUMGjGYOg6vqnsw8TZG5F0gYRzb6rDl6V+9IYV+BQJ3gFuOuXGURlSOIJSTwfuXrUFxde3wHWTB9c/U4E9Xh1+qoz2AO578Etc9/tv8NEXXrz+QReW37sBT7+6B8+8uAHLr/8W19y1BV981wlFsfDlpnbcsKoES6/5Bmvfa0RfREJjn4IHXmhE4W0e5N3SiOUPefCxpxsDUhhKv4WHnqrGZdd9hRffb8E769txzQNf4U9vlqGjJ4DmgB/HZe1Ecq6Esbk+TFtYgSdf3g1ZJyCGmP7vBSTR7cW4HB9m5bTjxQ+q4JcsrPmoHdOzypCY24yTrq3HezsV+H06tAgHKn5bRNHkVXDNw7sxsagWmXM9eGLtAPpViqmCvoCFp970Y7KrGik5lbj0/jo0tYfxwcZ2TDyvDinuTpyydOcQIFHxgRkHxIDGQd2IwTTD2FjZhsNzv8bEfA2zltXij2s70NSnI6RZMCJRWBEZuiWjtC2Iyx714Jj8Sky+oAqZ2bWYXNyE2XdtRb1Px+YNnTi16Dtkzq/GqcVN+Hl+LabPK8GNj7Ri+cpPcfjcVky+wIObnyhBfySMO1eX4LCsckw7rxGPPuPBTm8EN/25EYfPrsehF/ZjWrYfGa4mLLy7CmVVEurrJZya9yWOdLXhxIua8asrmnDs3DLcelctmlqCqO6rw/F532HKEg3j3GFMde85MCDJ7j6Mnd2Fwws68conDQhKNrbtCWPBDR5MX9qGtKJGzFr0HW5+uhrVdRa0iIWgpKKsMYTc28uRlFWL6XO24sMv/VD0AFTbD0XV8f4XPhx7UR3SF7bj7KtKsdUTxLsbujHlfALijQPSbMady4SEKMKlSI3FIAfjtvzWviAueXg3MnKqkFrQjiMLPVh4pwdvfTMARbahqyH0BAaw6u1mZOZuxZHLynHZY1uwfNVOHJHXgkkLtuKVT5uwcWs/jl9WjfFFElLm1SBtdgnSzngH1/xhC156twEZeTsxLrsDhbdvRk1nLy5/eCcyC9uRtmAbPvy6AX8rD2DGnA04MieAS3/fjsv+UIfD8usx6exdeGddHxp8A/j50i+QljeA5LwmJJ27HZknf4ubVu5BS4uCOl87js5dh+SCPozN9WPGwroDA5LgCmJstoQZua34y9eNUBgyQgnh/R09OOuKUqTOrkZqUQ9Sc2pw6kU78PZXVF0KvtvdjnN+V4ekOd04OmcPNmyPCAJxyYOOEd9s8uMXVzYitagLpyzZgc0ePz4uCSL91zuQ4u7BKUtKsVsAQi9A+oDFAQnTeGPHYEhRyKqB9VV9OP+m75CR5UFaloT0/B4csXQz7l/jEWNAXUcIxXcREC9m396CdWU+/GODHzPnVCH5nB24760arC8J4IT8XRiXW4UTrtiGO9/04vNKHQNBE41NCibO/QfGzQ9i7lUt+PtHfci+vhGpOX2YnPsFalok5K18HxMWtOEXhQ34skLG2+s78avlrUg5txYP/KUe6z1tOHFJOdIKFBy5rAa3v9SAb8oMdPRakMM2ylv7cFzBZkxY0omxOT2Y5m7Cky+XHUBl5YYw+SIbE+fX4sVPqqDKEmy9CwHTxBc7Lcy5YiemZHswnqbKQh9OuWQLPtzQhk1lXlxwUzOS8iQc4a7C+tII/EGuzUShKQo+2eDDKZc3I9XVjt9csgc7K4L4okxC+mlbkVLQPwQIvVjo7Rd3yqNrphb1iw9PVYrCNGxIpo7v6hUsu7cSs/LahZk2Ib8Jyee+jbVf92FLtYTfXlaH9PN6cHJhJ4pu7MJ5K1qQkRfAxCu9WPlqGT77uhenL25DZnEbcm/fjg0VveJDV/cHxbdR1rU7kZTdj9/eEMSq1e34zfJGpC1ow1V/aEVTtY6ca7bgZxcpmHFRKy64fSPOutGDtAIvUub4cOPDHdhabuCXi8uRlhvCKUs9+HIjtz6HoNsBmKqJxn4bJxaXI6W4BePyBjCryHtgQJJdQaQXKZiUU4fnP66GGgrDDvXGJUXTUd+p46UP+nFcwQ5MXChhxqIm3PBEKTZ5/Mi+pRh2LDgAACAASURBVBKJrn5k5JbgtXWd8Ks2DG7K18N4e30AR13UhOQFjci6uhJ7KsL4ZEcvJlxQOgTIbuxujk97+WEk3DLpK2tbCIUHoOoSLFODFuH+C1vMnF5+twNnXrYFmcv6keb24cTCz/DCx304+2oPMrJacbhrACfktuLw7E041F2Hmfnb8dCacnyzuR/HuauQlN+EhfdUYIcnCFXWEbXCCBoWVq+hpW8Pjri8DbOv2olZiz3IdJfj3Q8CqGkzcfbyjUJCUl1VOKxgB47N78KsRfWY5S7Foy90wiMA+RoTCr04ZXE5NpRo0Okpb3EVwkCz38DRuaVIdPdhXEEI093NowHShd9c3ozk/H6Mnd+Faa4mvPFZB+SAjqimQpFNyGoIutoPORLGU38LInVOJdLy2zHvhk34rDSAix+tRlpBN5Kyy3DTS6XokXVENKoCCXe/1oYJ2R5MyK7CjX/0or3Dwue7+jHhwm1Ic/tx0uLt2NHAtR5NuByZXLPi1gaZy/Zh6NE+RPQgTNmCEVZh6n5oET/+us6Lw5e1ImGeicOyN2HNlgGcesUWpOU04IhFrbjigVasen4T7n26Enc+0Y71JRK+/K4FxyzdjXHuRrjvKIenxg/N1GHGJEi2jvVbgphasBUTizoxeT7BaMbxl1Vg+7YgGvwGTrv8K0wrHsDMRTVYfl8b7n3EjzseLcWNT3+B7eV9aKgz8cuFm5Hq6sSJl3jwZUlATJMt00bU1FDb68eRs7cguVBCYpGCqfm1Q4DwG2pollVa1YMzlrciucCPsYUSpmbV4b1P2xCRdLT3+LC11Ic9tQG0er2o7+3C3W82IiWnFqmubhTctQ3bOoNY9W4TjipuQfqCAZxyRQk+3DWAilYZX26TcMHKemRmt+CIou1Y/bdW9PtUfLbLj4zzSpBRJOHoxRvxl2982FYlobQmhPJaP3oHON83oEcVyFEZ7YEgNpX2YnddGLU9fjT1+PD0uw2Y6SrHhLkGTij+Fu94Aih8oAkZ87pw5rXt+NvXA6hsboOnbQAb6iRUNAewaUs7TirejfHubrjvbYCnpg8Rfldw+dwwUNUdwYVXbcTk3CYkZfUgbW4liu/0oLozBLlfw5I7SzFpcS8OX9aI1R/2oL5TQnVnENs9AbT0GNhZb+MXS3Yhw9WGky7dhXUlMjSu24mPShMNAyEcmbUVSUV9cVq76/Hky+WQDQKiIxqzMcYBJCNPw9iCCGa6a7Dm41L4ZRNvf1uH3Gu+xsI/7MG1z1XimmcacezSakwq9GGyqxF/eK0e/Vxe8QSQf0sZZrpbkJlVj7N+144lj3Uh655qTC5sRmZ2O3Jv82BbfR8kI4C/b+jDtDMakFoUxOSiRpx9bQvyb+lC8W1tWHjzenxeMoCwakCJ9kOyg9hZ70feVVuw6N5uXLy6AVev9uI3v2vC1MJ2TMnuxbK7ylDWHcajf2vAjLxtmLKwDvNuasF1D3tx7eOtWHrvenzwTR22bvPiJFc1kl19KLyrFZ4KH2Rdh8Qlci0Ar6Tijj/VY8qF5ZiRb2LKhRV48PU2dEtB6GEZb34dwqHuXZhU1IRTr67Atau9WPFMJ5b8bhf+sV7C9g4bJyzehOlFYZy8pBrrdoegUeLFUs7/AIg1HJBLW5E2V8XYvAhmuCvx+pdl6FEsrN3Qjl8WfIqJ55Uh49x2HDZ/AJnnD2DqPA/c91ViR2MfTK0PUiCM9zf24IIbd+CwgkYkn9OA1HxKXTUy3e244KYGfLDFi56BdtCG8dmXEo458SvxBT85tw3JZ1Qh4+x2TDynFpN+9Tb+/Pcu9PTaUHQJiuVHSWU3fpX7ATLP3YIJ7ipk5HUibX4lJuZtw+wVldi0JwhJi2CLpxOL/rAb09weTDqvEYed34MZF3gw6cwX8cZHzfhuYz9OzdmC9PO3YeHKnajw9EHRVYRpGrAlhDQZa79swonZ6zHz3Fb80rUN763vQEj1w472oD2oYOVzHkx2fYfUrAqkXliJSed7cOTpn+KVD/uwqSOMo/PfwpQ5Vfhl8XZ8W9YDxeKuAa4s/yuALG9Fam4EY/NDmJxTi79+Vo9g2ERjn4zX/9GJ61fVouB6D3Kv2o2L7qzCfa9VY2ODHyE1DFvphxYOoCek4ZM9Pvz+5RZk31CDUy7pxGRXu3CNueKpdpTU6+j3hSGHTNRWm/jjw3uw4skaXP9UI656uAnXPNmNqx5vxO8e3IDdHh9CdADgXgtVgY+Af16P3z3iwYKVDTjrilq4f1+Be16twqY9EmSVy9cBBGUVJQ0hPPlWG1bc0wT3dbW4/IEaPPthI6o6Imhqi+D+52uw/P4yrH6jEh0dQWiGIlaSYzEujRioaOvFY2sacN39nVj9ZhcauugKSruPIqyiDZ06nnynBUX31iHrpjJc/vsd+NOaZlS1q6gaCOD21dtwzaoG3PnkbtS2SNAsE2bs3wBkQpEU12uuTqz9RweUMPfrhRGRGHAmgLbOPjS1D6CmtQO+kISwrEALWYhpKmxThha1EbRUdEp+lNYE8Oo/wviVewcmzN+FIxY14syLPXj4lQq0DYQwoEVR4ZfR5dfg7dfQ7dfQFlRR0zeA5u5eqFwJsCXoqoGYGkVMMaFKPvT7/WjuklHVIqOxS0FXTx8MrlGFexE1Q2LJnutQkj+MHq+Cpk4FjX1cr7KEiUA2o+iQDDT0qfAOKNC4jyOqwqAHobC/WJDUMLpDOpr6TfSEbLFGZUQ0GFp8Wd9UwwiGLdR3aqhulOH1+iFJfujWAEKGhO6AiqYuDe3dAWgatynEYMW4MPkvSkh6QT/GFkcwKbsFaz/ugMrYgnofZCUE2yIHmsL1kf6+tmnDjliIGjExrVNMVXTYsFXYlg+GKcEXsvHlziByb9qGWQUlmDrXg1ueqEBXXwBBVUY/N/3QqBWJwdbj29IUW4FuGbA5w4pK8UVGm9ZJC4bOXcJhaEoQsuKHYaqwDEt44nM7gBml6Zge51FYig1VMUD/ZMuIIuTjHscYZG7N1iTougpdiUClhEeVIbM019EM6KYFxVCg2mEYdrzOmMnNohFEY0EYUS90MwhTi0IN2DBk0kFG1PIhGqMhKopIKAjL7oNuy1Cj3wPS+EOD+j5jyPJWZOQEkLZIx8QztmHNJw2QVBnhwSDkWAxqTIEyGMGAKYNLGjTh2hF6m4ShxoKQjIjw1aJhP2bYkAd6oUQl+O0Qen0aXv66A1k3bMCTT++Er1VGNMQprR+yKWHQimJQ5V4TA9agDH1QFw4Vqh6DMRiFNOiHb9CPyGAUYTpEaDFYUUaz0xFVYlDlQWjcK69FxLeLyQ37lgyfLUEbpL8yl/VjsPQQjJgkZjwxQ8OgbiAm9hKqiNlDszrTP7R/kmZgWeyD4R6YmBlGzIoioBiIxDQYUUVYAbkcH44NTddp7h7af2hTvVldGND6EOYG1SEJ+ecAqe7CGcv5JS3hkEIfJubW4vWPOqDSm4TL4NwZxM2bw1xVRlrLxG6qYbYCx1WIBhtyqaZbUDQLKkWY0iU2U9Kq9/1+8B/6HfcS+T7vcLvEqL+FF8iBLXyjv2tf2/tI+/q+1sT4Js997420UtLaGfe8EbYVy0CLX8YxuSVIcvdgbEEQMwobvp/27pWQ0QChylJZoQPI98QY2ZlRCbIPOAe2tI2s65/9/z+985+tZ2S+kSAM///DxB8Jxvf/BTNxlvXfAoSd+p8IdKDnIwnyz/4/UH28/8/WMVq+4QCM/P2jAmS0zv04733P2f8uACPL/a9IyI+T+PurYY59w23pw3+PJPQ/+/9/BZDRnMf+mXv/LpA/VPe/WyfLDQdg5O9/FoCR+X4QEPewQX3vWtb/5aDOjvwQgX7o2b9LvP9Enf8pQOLO3wcY1PcDxKKTQxfOvLxl32nviFmWiG0ySqCUHyLM/9azkSDv0w4O+roBw1IgWyGoMR36kJO0pVKFhYS3C92ILHpNKlHxhU47zA8lVbHj7ksqjXL8WKWbaxRRhqUy6WorwVJ0dA5YODrnKyTm92FsnowZWfV4dk05+mUJYZ1utcLrpAtnXnGQADJoC68WfoGbjMyjmVAY+immIRLxCm99IxpDxIoiqEfRrRioHRjAjtZ6lDR1oqTRO2qqaA/CGzThV6IIqRZMrjbYXFkIQItFoBNoyw9vQMdR7i+R6NYxNs/Azxa14U9v7IFkKNBosh78CQOyj2SILQTxL2bZ1sTuqlCEEU8tKHoUvcEI2nwSNjXLeH39AH7/Ui0W37MH568oxYmLtmL6gq8x6fxvMek8pvUj0rc4fM4HWHDtVqx4pB43P16B1X9rx3flEdR1K2gNmPDJGjSjGy3dfTgxdw0OXdiD9MIunHDpLry0dgeCqgZdeMDrQyrrJyghwwGhGqMXocl4YFzss6NCMho6JHy1U8JjbwZwwZXbkH7eOqRcsAXp8yuRkd+FCUVBpHDR1R3E+AIZ4/OV/VJCvoIJbgWpeX4kL2hFZnYNJszegrSzPsQx7m9x+aOt+MtXEjxNCrqDJm575DNcdE8Jlt63GyufLcUXG+ohKToMhuaIHiSA8IORFkhu31PUKFq9Cj74xosr7tuNXyzehal5LUjL8iO9uBNJ7k6Md3VjXF4/xucHkFAoIaFYwjh3L8a5e0ZPC3qFjTxhkYyEoiASi1i2E4muZkxwVeJnBSVw31KD599tw3eeEFoHTLT3KGjtCqPHp8C0uTxvYDBmHBwSwrUz7jIOhlVsq5Vwy1N7cFLhJqTNrkJmfgSJeTKSXWGkFfqR6upFSk4HJuQ0Y7q7AUcvqcOJy2tx8nIPTl5ePmo6ckk1Zi1swMT8eqTmtSKtoA9JLglphRoyiiVk5HYhbV4DMi7ciKX3evDZFh96+8IiWp4hnMoZj4yB1w4SCSEg4YiC8oYgFj7YhOnuUqQVdiFxoYLEIg3jsr3IzGtG5tw9OHFZI3Jv68bVj3XiD39uwgvv1+GddXX4cH0zPlrfMmp6/eNWrH67Dfe+0IzLHmjAvBsbcezCakzJrUZmXguSstuRVORH8sIQMvObcfYlZXjx3UZ0hxRhIKM9nV42gzENY3bXeH9S014Ruo8xHUUIP3IeAydL8DREcPGqPZhY1I60xQEkLwojsaAfE/Nrcdplu3DVQx488dc9+Ns3HdharaDOa4lZkaRwL2NYhCRkeL/RkqJaGPCr6PGZaOq2sKVSxltfefHomgZceW8tTlm6G2muPRhf7EP6IgOJ51bh7GtK8fznXfBHZBg2w/NyVZ0qq6ZbuAHts/z+I/4OISB2jBtEGVxNF1uVTcuPh18JITP7O6QUS8hcoiE1uxPHLGrAlY+04x9b+lDVMQBJ0cTmGe6mpV9ZPHCbIrbk0eIX/3rn8srwxC0PpjCY0cNeMUIIqyFopolgyER9q4z3vutD8f3bMblwB6YuUzHJHULmnErMv7kSe+rodiuJ7RhRkyqLgFw2wh7yIweEthuDwSdpPrAMyLqMXxfuQEpeuYhBMn5OM06/qhmrPwmhvCO+PUHXLbEbWOwItmLC9CpWj8UKMleRf2jhkRH2uMmV28bjAEUtDYYeEtv/aOyju9Dj7/dgWs52pLjDyCgI4lh3Od7+uAaKRUtjfMPRTw8QmkxtU2yzjg7Gt4n5VQtTf/UV0hZ2Y3x+NzJdlbj5pU7U9oahGF0wQwHEgtwFHE8G9+JzE+ogQ98ykimjqh4YEG7cscRGWEbYGxTbKGK6jSjD43LzkBqGpfrRE9aRs6oMyct7MH6hhOlZHjzz4g4hldzcOmjTL6vaizOWN/1klk64zGNZBnRa6wbjhOpRbEw+vQTpSyMYW9iH8edXYOl9XdjdbCGk9sM0B0TkN27fptNamN77DNfHUH0xBgGIbwX/IVAoTSaJyv3pVhRKWIMqh6HZ3FphQpMt7PJY+NWKXUjIqcO4xT4cvrAGT7/ATZ8MP8uyP0lAGG/YEkEGGMhAVwy0+y1MOr0MCbkBjHMNIDXPwMzsASy724c3v+1H04APA3qH2JPC7XQanS2Ek0UYDGZJ54cfAsOOStCtbpjRPkQHAzBjYZgxHZptw2tI8AT8eOUfXThvaQVmFUaQstjAuKwezCqswfOvVYotbYbBWZZBCenCGZc2/oQkhIDYYp8iN+xzUW8gbGPyL3YgJTeIQ9w+JDDWV64PE/M6cGzhbly6qgavfR5CaVkAzW0R+CVDbCI1LA7WFjSVIfq4z/AAiVKgSlCNACJmEJ3BAOq8CjbuCeK5j7rhurcKhxZUiME8OU/C+Nx+pBaEcERhJ/70WjnCDPMugjJH4tPeMy5tQmreMCeHH/mgziAE5PRozBARVSXFxpSTtyIjn4B0izS2iCEufEjnB9z5HZhxYS2WrSzDrY/W4dm1XXjni36s2+rDrooQapo0dPaG0dUfGjXVNsvYXhYSm2DfXteDx//ahRuf6sLsKz04LKdUhGVKmKcjocBGoqsdCfnNSC+QcDg3fb68G2FdEQuS3HU8pqy2G7/5KQESZbhwG6aIaWLC1g0EZBuTT92GVNcAxhb1Y2yegnHZvUjIa0ZiQR/Sl+gYn+dFWmE/0lzdSJ/fislza3GcuxJzVtTjonvbseLRelz7WN2oqeiuBpyzogaMzMBtfek5TUhf2IPkxV4kLGpCcnE/0uaHMGFONzLcHUOR+cKY5mrAUyOdrX/SgAyOBMSHse4+JOV5cco1TfjtTTswM+9b4SCe6e5DwsJmJBR1iv0bia4BJOT2IDGnDSnZ9UjK4hf3AZKrHUk5nUjK7UNaUQhpiwIYX9SBcYU1SHZVYdK8WpyQX4m8Oxrxy+vLkZjdiKS8AGYtad/fDeigAiQ/gEO4XpVVhetXt+Lz3X78+R+tuPKPrTj3ugpk5lYjNbsBSdleJLokjHfLOMQdwVhXEIwxyQCbo6XxzJMfwdjcCBJzJSQv6ETagjrMKqzH+Ve34fbHuvG3z/rwVaWMwgdKMLWwE+mFEmYuHmbCdfyyDipAXEEkFIcwLb8FT67twkDQRkCyUd2lY111EK+tk7BydTfOXr4TUy5Yj5SzdyBlTgsyXUGk5HYhOadz1JS+oB2pF9Yh5bc7cOjczZhzdRluX92FVz4OY32pivYuA1IkIrZuXHL/LkzL57ZAFdMWVh7kElIgIWGJjkkLWvHYq13w+wyE/f2Q5B6ELC/8Uie8/n7Ue4PYUS/h4x0BPP+pF6v+2oCVf9qNm1bvGjXdttqDP33Qh288IexpCqGuTUZPv4yQHEFE7YOitMFUOxFUNFxxXxVmuDQk5MmYlr8LT768J75h56CUkJwAEnKDmJLfhj++3o2eIGOBMaqRipDSjahug9FZ+ZHGSEQR1RDrW4zkIIXCkMTJ2AxUsG8KhPshKf1QuN3OZLAcGRZP2KE51+AhBrTVawioNq58sBxT8vuQVChjahEDB4wKSPNPZ9o7fJY1clDPl3BIQRjJs8txzxst8IZlESbKoAe+YceDp4n49nEvkSidp62oiM1lCS92moH3T2LNiwfGMImQhjEYXE+LxaDYMSj08jdjCOhR/G51GaYU1yOhMICphdX7q6zd1T048/J2pLpC3ztb/8i/Q7hXT2c4PwLCU+W4dPKrbWIf5fjCACbP68YTr/fBL4VhhBicIAa/HhSn/MRPvxk6XECcnMNANvT0N8VZIDwPZGRiKJAoP0Kj8XNDbB7nEWOIKR1h24QWMxA1dCiSjd896UWKq1lEfZ3mGg2QKgLScXAAks8I3BKm5Hrxx9e70Cf1ixCEgzwqiVsVLCfIJ0N6xGBw1VdIxuAB4zTSEY6Lkpo9CMWMx5a0BmPxdbSYDcU2YERDsE2/2M6w9OE9SF/SjKTCEGYsqMeTfx7a9OmMIbsPJkAKAhjrDiE9qwM3P9eFxj4G6+TGIcaP7BEx7207HleSK8aMHqSJw1riqohnTI2WqMa4MMldZIzUSgmKCinhHnVueApA1/wo9xqYf38ZJixrQ4o7hMPcXQc5IK4BjHP3IzXXh9Mvb8ZzH/iFZZAh9kJajziqSFdVGDye1YwfWsaDwCxu7onxiLvRk7MfhpHjDM2EOHXOptozhZ0komqobNXwwFt+TCliLP0epBaFMcPV+P2X+kEpIfn9GF/UK2KDpc7pwakXdeCiez145dMulHdH4ItYkBQTssbQrrQQcvk9hJjFcLUK7Kg2aooKp7gwLMaPZNh2M4qIEUN/yERFu4wXP2zCknsqcOLF7ZjEoAEFmjjQYLr7YB9D8riO5UVSoYqkfA3p+QFMdJXj5Et3I+f2Sjz8Nw/+vrUXZV0WvKqFAIMK0CRr+EXATobNHS3JFsNRqZBMA10RCztaDKz9tgN3/XkHCu/ajOMv3oVpxbQ5BZBZqCPZTR+vHkxdyEgOI6a9B9MYkpLH7xA/xnIsWRjGuMV+JC7uRGJuBybmSDh+USeOL6zCqcUlyLpmG258qBLPvdmJ977wY93GZny9qRHfjEi89/dPu/H0q6247t5dmH/Zd/hVUQlOcFfjKHcbJuf3IJFf5kt1JC8NIyG/DSmFHRib24apS9pGmfaK0BptPx17CJ0bDjTtdfXhkIJ2HJLjw6TcbszMrkFydjMSFqkYz2WVom6ML+5GYmEnUgpbkbmwHlOX1mDmJVU4rLACh7s9o6aZhR5Mc9PeUYuMomakLepE4hIvEpZ0YXxeAOOyDCQsaMax7j2YNteD5GIdY5dGMHVx+f6AOKE1fkpeJwcChH1MLDCRVuTHoof6sOLRnTjc9TeknLMFR1ON5OhIK7SQucgS1/F5EYzLDyK5OIikogOnxEVBJC7iYmQI43IjGDc/guQFMjJyVREQNG3uRvx88Trcvboby27zIyUnhIT5Phy2cJQx5GACJDlHwrg5ESTPr8BDb7fAKxnY3WHi2Xcl3HR3G44rLMOs3D2YvKAKmfTTzR3AhDxJrGLsPdapgKAOS24CERG+v0l5YaTOa8PkOWU43rUV519agusfKsebG/pR2Wugq8fCTffUYZrLj9RCDbMKOIaM+A45qADJ88Wd4wob8Ojadgz0K4joJsKWhYgkY2t9EG982Yjbni1B0W2bceGKHTjtsj04aVk5ji+uxXFFdaOmYxfvwsnLS3De73ah+M4S3PrsTqz9vBF7msPwyTzlToPCPf4hC7fevwsZWS0YX0ADFdeyDmZAXD4cUtCNcdkVWPVaGwKSBUah0KMyTK1dhDWXVQ0+yUJzryUCq31TIeHj0j58uLkZH24aPX26pQYbPW2o7pTRFbQwEDYRkA2EOQU2dITVMEKaBFk2sfLhMqS6mjB+cRgzFnH5fcQs66CSkNwADskJIimvFg+ubYc/pEDh6iyPydDiYWkZmjbGI2VtLpuY4Ol1SpQHBzC8Bo8M3z/RkcLWTEQNWxxFy5Afqi5DtUJi5VezbHEaRCBkY8WqMqTmt2PcojCmFXJQP4gB4aCe4o4go6AGj6xthT9A9x1ZOEQwCLJJ158ol8sZ6tyMH1LPU4W4mWboIGa6BO2XTA10A2VMFnFiA2Ou2AYsW4FlyVBtDXLUQjASxcpHG5AmTrxTcKh7lDGEewx/8xPaYzg4tPxu0MlhaPndz9VeOjnkB5FYGEBGbjkeeqMFA0FNOE/T65ARtHUrBEscFhMPVW4wPJQxFPac56McIAk3UnvImc45b577DHULlqyLuO9m1I+AbuLK+6owKceH8a4wpo9mwo1Htv4J+fb+kD0kTwJ3PM0obMIDb7WjU1JA3ysapZSINOQQxzPQNVjRMEybxzxJGOShNVybsuxRk5AqLrHEJHGag2kFRGgrEfiGNhUarKIBtIdMXPFABw4vlDE+L4ypS1v3H9SdUOM/me+QHwAkLU9CYp6K5HkNcK+qwNf1Evwat7rxJKAOGAyuL+wo9OmyRfAYBjYbZLJ4UjYTfw9PXPMiiKoAMTpIb0ee6kDnNxOGIYuY8QOqgQ932ji5uBRp57YjPU/D1JxRnBwOJkBSs3uQxCh3i1Rk5FbjNytK8eJnETT5bMgWY/hK0LmfJBqFZcQgtkqrMfBUIC0mQx2M7J9iESgRC5YW3wpNi6GsRRBWIyLMlGTY2NNm4vF3gjjvxk5MLe5GRmEYSTlBTM1uGGX5fSgY/8EgIan5Axi7qA+HuHSMc4WR7u7EDFcl5l5fjuc+6UZ1l4Q2v4K+sI6gokDmiQtWJG7ToNVQ7BGhEev7xHuWrYrJQcSMIKIb4tujsU/Dd3t68fS7jTh7xVZMmr0DqXlBJLhljOX5wQv9mJY7itfJQSUheQEc4pYxpsjGIe5ejC9sRkahhPT5PqSdX4HTC7di0cpa3P+KD2u/juDzPSFsrB/A9hYvOnsC6OmV0Nu3b+I9T1sQ2xrDWFcRwmtfSVj5bAtyr/PgV0VlmJnrQYa7E6nuMMblqUhiIP6FQSQs9OHISztHsYccRBKS5gqIUwnG5kpIdbcipaAC4+nU5tIwYaGKaW4Fk7lEvqAJE+eX4XD3Dpx2pQfZdzTh4gc8uPTB8lHTvBurcOrFHvzMXYLJubuQmVuLCfk9SM8PI8WtI7lYQVJBNxIWNCBpfgsyiiPCHjLDVf89IE6sk5Jq7qCKx7I9xB3AFFcd/vpRt4hZSO9xuvSL0H3/FzFNhu8Z/4//Hj6oC2drbtynk8N2pLh8GFvQh+QcL06/vhtzb2vGzwr2ICOrEenudiS4/RjvDiKhkKplAOPyvEjI6UBybgcScukL3IvEEUncX+BFYm4fkli2wI9x7gEkFvuRtHAAiXleTMxuwimLKzB/ZR1OurgRE7J9GJ8lYdbCDjz9igeyrsASxwxGMWZTrYTfXFqORFcbDskPi1jpb73fDU2WYQ/K0LhtV7i37B/OyIkr8h8n8r8SZ2Vo+Z3xGslQ3CrWT0BOK0FyPm3qfqTnVOPWl9vxdUUIL7xfjytX1SD71jrMWtSETFcdkrMbkOzqQlphAMnuAMZl0yc4XpblR6aEfB/Gu7sJGQAACiNJREFUufxI4NbqHD+SZzdg4rxynHRJHfJub8Lvn2rAR5/0o7RKx7L7PEh3dSDJHcGM4ko8+5oHYVUGjygk44/ZVq/hnEvrkZTrxTi3Jo4sWvteC1RFgh0LCTBEMJUfiI/4YwBk0mk7kOwKINHlx8R5ZXhkbSN6QiEE1QjqvAa+qZTw3Mde3PRsHfJWluKcKytw2vJ2HFvUhcmzW5E8vxJJWZ5R05QcGqMacepFbbhwRTOW3FWLu1+sx5p1XfimNoTGAQVhJQJJ1XDNk1uR4a4fMuF68OwaAhL5HpAd9QbOWdyA5LldSF5o4dDCGrzzaRdUmdGcJXFqZ/wAxx+3hAhAaLlz6Zgxvw3PvulFfyAIyd8DOaKKqKqSFkJ7fxDlDX3Y5PHhkx1+rFnXjSf/3ogHXm3AA680YNWIxHuPv1mDNZ934tMSCZs9EqpaFfRKjAEsw6fxnBUfNMUvwppf/3Q5Uha0Y3yuhkOLO4YkZBggu+oiOLeoHBkLOjHebWB6cTNe+aBbHJhlRCPiBMqfDCAFISS4DUzK6sADf+lBd1CHRlUhzhHUEWPgT4PunyYimoYBNYIeOYSukITefhW9faOnnkAY/REVks7Ay3E31HDAgh6xxUoAvVFsuqWGbFz5SCXScvqRWGDg0OK2/QGpapOQf3kJDi3sxLgsCZOK+3Dz45UIqhY0bpzkcW5cMvgpqCzq/yVeJGbvxK2vNqBVYhQeLgIycLMJTeHRS4wsx8VB7lWPIqJFEQiZUM34OVdiMZILksMT96nbUXHyqF8KQGGAZtZrqZD1EORwCBYPMZNsXPFYuYiLn+Duw/TiXXhmTfm+KqsnJGPlQ+U4tLgG43LDSCuSce6lm7GjlqcG8EhqRUQY+LEDEh/U+zG+sAWZBR7ctbYVrZIOSZMRkBiVWhYLizyJ2ogxWIAWPzGUwaGj9Ew8cLLJrIM2YsKlNAwzOgDd8sKMeoVHpMWPStPGgBzF5U9WYUJhF5KL+nFocYkIYLbPoB4xdbz0TiMOc5cgYYmBRLeGI7M2ihgf3SoPggwiFuXJzfuOIdyc7wRX/v9tULeHnBysoS3N/bKJw87bieQ8P5IKZEyY34Hcmz34do9fbHejVOhaRPhS6UNHcAsPRR50bKsYtHikKyNkG6MncQp2TOxPF9H3xMGYPNs2Bj1qx+PiBy18smkAv1i2EUlZQWQWRTDLVY4X1g7NssSe9hjGRFQVPQMSzr2uClMW+ZCUZSF5TgBnXbcOn+4pR0AKxGOsi+DITrRm2g7iB7qbDMXtnPQ8AjQBIk9+/q+leARuLr3LsSgYHc40ZQxEgrj1T42YeGED0ooljM+XkJLXiDNursbqzwdQ2SChvycEXY8fMU51FQ+loUI4wXHV1zbECaIM/7dvii/R2zpVO73lGS+elkIDPlWD1y9jV40fd77UiFMuq8F0xuBaEMDkvGZcsGI3dpR2IRxm9IcYDNPEGEXX4JdCePC9NkxesAPJCySkF0uY5KrD3Ov24NPSPvhDEVgaBzxyiIxBM4JBXg1VNIIie6BEx+P/ZqJbZyzKccEU+zPYZsuKYF1JCFnXNSE5izGx2pDk7kJqgYT0Cyox/6YS3P/XDdi4uwOepiA6fTTBxhBSeEKcDVUltzO+CU9I2D/F7SkxqLqNUFhFV7+G3fUS/r6hEXf/uQxnXPYVprtLkO7yIXVBGJmufhyzZAvufaMe3X00YsXHLcbNGqOZBkKygrJWBYvu3IXU2euRUNwugrRMdvfjvJvr8eePm7CrqhddAyrCKkPkMSnidE1dU4aCtDDg475JN3VxwgxPmflvJZXngfBwAENBSNag/p/2zi2mrTqO40CvtOuYY07novFR45yZY2Yxk2FAe+8KLplxmZe9LEYWR0w00WXRXXRxGi+4sYyoM5pMyEycOpTsEnaV0pZSoDBogQIFej09LXQ8fsz/4CO8kj3s4fPQc5o+/P/n9H/7fb9fWWIqHiEWT/LTX6Ns2hvE9HIAk2sGnWsG/Y5RTO47rDT/y3Ov3sB9IEj95yMcbh6hsTWiGNMI07GOQJRrgdFFaeuM8Wv7OCdbwxxrHuHto+OY94V5uq6PR1w9rKwLobeNoXdkKXNGWe/ooOFUF/4p0Y5C+y5iywV3KRK9ks3JpKU4Fz0havZfRL09iL4upwjstZZBNuz24Wzwsu9IL+9/3c/h5jDHfwxz9HQfR77zc/yUd0k+a/KynBw97eHjM518dMrLwaYAx77v5YMTf3Kze4yxlExzewxbfSeP2vyUmSOKZsTwSp7i6iRGewqDOcqK6l7Kajw85vbw7N4gNQeGsTZ0Y23wLcqL9X1sejPI47VdrLH4MFlE2lsMrWUGnS2FrjaL3hbGYPawcc9tDjV7EbvBqVxcicTIifDiwqzy114kTFZmC3PMSikScoyL/hlq3umhdHu/8qNG9yhG5yQmxxRltjCrnQOsdffxkKuHcouHB8weyh2BpXEGKF9G1rg6KXdeZ5XdQ5mji7V13TxYfZ5vWoaZzspEE1mu9cT5pClE5e4u1lT6WOeOYrQG0Yj4WXtEQe0QNcBRjO4JTO5JjPbYkpgcCUzONKWuFBpnUrEE1NTFUDmHMJiHWFXTzROvXeH1T2/R0jGuFHVLqQx5OYGcF6eW0sJh2HyBooJiYyQyMgpKYvG0NMUFzyA737vB6soOjDU+NJZRSqxxVLZp1CKc3TmhbKCV2EVZTZziHemlcacpXkZKamOoXRFULlE2GkK14w4myy2++HlQ0QBKojwnKczGUlzunODblgl2H+xn486bGLb6MW7rx1gVRl89jvalaXTWNAanjM6eQGePK3JpIZlWsMeVa3prFJ0lgtYSUfTqqsoudM9fZb31No53hzjUNMa5S2P4Iwmi03HFpEYsQAu5LPk5obzK/z9tnqPormKhOo9cEK6YBXIJmWRKpns4zZetMarqh1ht7kNdNYjKPKIUmoldUZUjrmizNfYEpfYYhkUQ10sdy4tG2GeYU6hsEsXWUUrsY8p2+ommQbKZSXLCt0TKk0unkLJJhqdm8IxIXAqlOftPnA9PBqhtuMLWN67y1C4v6xxBDC/40FUG0C6BsfJvHra3sWHPdarqb/PWMT9ftYzS3plSopFGYkllraNEjMt5pGQBOVsgK2cVZZbIahdT9cL87MIbMqdIsMTgcpe8LFyaM2TkDBMJia4BmXNt0+w/HuKZXUFWbAtSVhlCv8WDdosfdUUATYUP7aL40Sj3xXeWB/XmXlQVHrQVAbRb+tBsDmJ4so3Gsz5kKcucJCuzRWHhJBZsImJJuL8p2VWZPBPxHEMTEt47GS57U7ReneaHP8Y42TpI02/DNLYO0NgyQNP5IeXzmd8j/NI+zoVbM9wIZeiNSoRjMpPxHIlkHmH/J+WE3lBoTkQbCzPnhTWcGC7mRGDYvDi/X4jaKMpms9zn3mmD+x1yjz2Q9zvkHuuQ/wDvLj/cNiLo5AAAAABJRU5ErkJggg==;" vertex="1" parent="1">
          <mxGeometry x="1000" y="286.90000000000003" width="60" height="76.2" as="geometry" />
        </mxCell>
        <mxCell id="dcIogtWbxeqWuTG1K_oC-10" value="" style="shape=image;verticalLabelPosition=bottom;labelBackgroundColor=#ffffff;verticalAlign=top;aspect=fixed;imageAspect=0;image=data:image/png,iVBORw0KGgoAAAANSUhEUgAAAFwAAAAnCAYAAACCCi9aAAANY0lEQVRoBe2a93dVxRbHBwjFp3Qb/YFPQKRIk6KgslCKKEUXjyKwBEUUUJAiCKyHAirSu4CCDZCiiNIEBAnSlADSo9JJ7klyc2P5A75vfTY515trEiAoZLnyw6xzz5wzc2a++7u/e89OXFpamvLatcPA5YF97cAG6zzAr7GH5wGeawH3PKXRUlOVFgwqdOq0NesLhfLiwGUa7rIYHkpMVOqOHQquXKnQgQMKHTqs5BkzlTT6fwp+8YVCx48rdOGCGSIvJmQfEy4L8OD69fJq11agUCEFypSR17iJEgvEKOCcAoULy2vQQMnjxin16NE8pl+C6dkDHgoplJKi5JFjFCh1swL58ikQE3MReMCm0QfopUrJq1lLyVNnKJSQkAd8FsBnDzhafeKEvNZtFChc5CLAPtDRV4C/8UZ59RsodV9ctvISCoUUDAYztFRiQxaLvFQ/cyUkJOjUqVNKSUmxefxvMC+//Tm45/3IPv9Z9PWXX34JzxX9LKf32QIe8jwlf/65AuXKKZA/f/aAY4ACBRQoVUrB5cuVFgiENxm9uH379mn8+PF68cUXw+3ll1/WvHnzdPDgwcsCw58T8OLi4jR8+HCNGTNG586dM0B37Nih1157TVOnTpXneTYnRlmyZIn1r127Vj6g/lyR1/Pnz2v16tV6//33dfQvlMo/Aw4jEhKUGh+vxF279fWAATpZrJgSoxmd2T0sL1hQKWPHKnTmTKaAw6xPP/1UtWrVUpEiRVSuXDlVrFhRt99+u+666y4NHjxYJ0+etLEAdfr0abH55OTkDPNxT/9PP/2kVatWqXLlymrTpo1+/PFHe/e9997THXfcofvvv9+MALN//vlnPf/889Y/btw4/frrr2aMs2fPmndcuHBBvMfc3333nR5++GG1bNlSGCcQCNizSKPk5HdGwGHCkSMKrlihwNBhOtS2vbqXLq1FBQromHO6kBnI0X358snr1csyl8wWBOCfffaZ7rnnHlWqVEmTJk3S/PnzNWLECLvHELAQ0L/88ku9+eabmjZtmnbu3KnExERjKkDv2rVLM2fOtOdjx45V+fLlMwW8adOmZhQAg6nPPfecAQ77AXj9+vWaPHmyXn/9dS1atEg//PCDjhw5YvPeeeedqlatmq0NkiQlJV2R92W2/wyAp8bFKalzZwWKFDFw9zmnps7pP85plHM6mA76pdh+tn59pezdm4GR/sd9wBs0aKD69evbBpGFb7/91tjIBmHfgAEDVKJECRUuXFiFChVSnTp1DBBYD3urVq1qHsKzmJgY3XDDDWrdunUGhsN6xq1cudJY+sknn6hTp06qUqWKXnnlFc2dO1e33nqrzV+wYEEVL15cDzzwgBm8dOnSyp8/vzX68R4MjQf4e8nJNQx4KC1NyfMXKFC58sXMwzmddE4znFN551TSOTVzTjOd02Hn5KU3y1QiWE7/rptvVtz06Uo6dUpp6YHHX5wPeO3atVW0aFFj+r333muSwMaQAHS3QoUKBiBgTZkyxYzTrFkzbdq0SRgL+SEOrF23zrQb4KIlpUyZMgYmhitZsqQBiozhDXgFQXb58uX65ptv7Ip8IHFICF6GserWrWse+P3331812GAQBhxgUpYslVe1Wjg4Jjino85prnOq4ZxKOKdyzqmuc+rqnCY6p2XOaa1zWu+cVjmnOc6pfcGCWlipks716KHU2FilRWQJPuBsBhCaNGmiu+++W8WKFVPjxo21cOFCvf3224JxgFijRg0zBs+RINz+tttuU+fOnU1nCZJoOHEgGnD6aC+88IIGDRqkvn37GoDMM2rUKMXGxqpLly5mQAhQtmxZiyUbN240CWvUqJHuu+8+ce9nPz5xcnr9A/C0NJmk/LeLAv+6MQw6DIbRy51TX+dUzTkVdU7FnVMF51TVOdV2TvWcU/X0vjrOaUX+/Dp/yy1K6tjR5vUX6ANer149Va9e3dz9448/NsZiBNiNpt900032HGkhkA4ZMsR0Fc1FKpo3b64NGzbo8OHDWrx4sYEVDTjS0bBhQ5EVHT9+XHv27FGvXr1MUjBA9+7djcUDBw7USy+9ZL8J3l999ZX27t1rZMD7PidT+1uCZlKSgqvXyGvewnLqSLk475zinNNS59TfObVzTg3S9b2Sc/p3ujGaO6ex6UZC673y5ZU8fHg4L48EHNAB7MyZMxo2bJgBgcauWLFCDz74oOk0rERvhw4danJCVuKDhgRgELIJZCNaw7PLUgC5bdu25l2kkzTW4wNO8GzVqpUInL179zbP+suDJiwMJQYUXLtOXqtWCpQs+af8G40GyHjntCVdUuY7p3mwOt0oGCdsrGLF5LVsKXJ6X1rQ4UcffVSPP/64MY9AhNsCACz94IMPLHsAUIIjm37ooYeEJ5CywT7YidzgJWQ8eMdTTz0VPvwgM4xBeshGMDSGffXVV63/rbfe0tKlS4VsME/NmjWtIXEEcAIk3ka8QG769OljLGce31tzcs0gKeEJgkGlHjhgzPTKlrWs5bIOPpFA+7+LFzfjhZKSwoCTaZD2kWOTofBdQCcfJldGl+nDjQ8cOGCHIQDwDypcAT4+Pl4nTpwInzKZj3kAhbHMRWD0MwuugM+3OQQxD885bOE5/vd9JvM+75ImYqyrBZs9ZQ44R2yOvwkJCsbukNe3n7wqVS6eJH0gL/PqVa6s5EmTMmQrLNxvYSPjXVH93LNpGr8j3+V35DN/rP+Ofx89Lrqf++h5/Dm4+s+j54l850p+Zw04oAMAh6H4eKXu3KmUyVPkNW+pQMWKSuQY7/L9IR3RBoiJkVe1qpKHDFEo/eR4JQu7nu/6nnSpNfAep1Xapd71n2cPeGQxKSXFgEvds1fB1auVMm2akocOlde1m7xmzeU1bGhlWq9RI3kdOil51Cg7sVIrtz9aRM6V/htZIHsgD6bxG3f2F/d3XGEqcrJ//35t3rxZu3fvDus+MoR8IDG+1Plr4JTLadcvkCFfa9assUMaBzFk0n83u+vlAx4JGO4N89HH/fvtjxOpW7YoddNmpW7dZvofOn8+nJlELwAXRjM51JCd9OjRw4IgxSwCJvWQ6DF/xT1gY1QKUmQ3zz77rB31yckBj/SRYPruu+8agD7TGceaKAuQMgIuxurWrZvVZmbMmGF95PXbtm0zg2a13pwBHgl+Dn4TnDhmk0WQcnGq456KIakYBx82BasIoAQuAiRBMNIDMBzBlMAJIH6wYyz9sJFnNNjLc1JOvkGNhmyJTKVfv35mAPJ68vGJEydayeFE/Ambh0MP3wbYPXv3mNE4/bZv396yK8hDI9UkjaXO4wf+aOCvC+DbY2PVu08fWyCywqJgE27KpjjCs2hkhsIVZVuMQUpHygZwuDyA4iUcjCjPUpIF7EOHDmn27Nk2jmcACoMxyvTp0y2P5x0MylyMoZERwXy8jtyf35xs/Wxn9OjR2r59u9VgOnToYOUG3pk1a5Z5BqdSDmQc0khLfQ+JBP2aAw5QixYvtpwb94tcDL/RSfJpAEMbyYF79uppQAEe99Q6YDxSAMvIl6mrkIsD7Lp16/TYY4/pkUce0Zw5c+xoT6GMKiUMb9GihZ0B3njjDTMYmg2LMQL5NhVLKogYmAPYhAkTTG6oq/jeiLwALt6I0fFQzhacI1jP1q1bcwfgMBoQOORQEIoEHEZQh+bYDYDUVbp176YtX28xF4WBgITmL1u2TB07drR7jvuA2bNnTyulckACuAULFtg4yrJdu3a17yIvBEpAQc6efPJJ8yjKtegyskCpFm9gHEUuaugwG2MDLMaG1dRhOIThKQRiaja8SyzAYyL35v++5gxHd2EEDPzoo48ysACWoaOwhGcwnMCGETAG2s9YtJ9aeLt27SxwUUtHBgAQg1ABZPMYhY2y+aefftq8hgMMeo4cYUDAh82Ah9xgbPSZd2jU65EkGAvgeAjrwJgYGK/gGwRWgj4x4NixY5mCzXvXHHA+CgPQXHQQVhEUCTpsCv174oknLGiRTcBAMgOCEB7BONwZRgP4yJEjrQzAWPqogSA50YBjDIDkDwkYkrTQD8rcUwIAXADHAFcKOPsC8P79+5shs6ouXhfA2QxAIwmAy0ZhF24P0wg4BLMPP/zQNJRNkC6ipXgGEkJ6R4BlzDvvvGNjKEDh7gRb9J55AAKGE9z4Bn90ANyB6SkoKSAxg+cYasTIEZo1e5aNYRzSMWjwYAvIBHP+zkkGxNpgPnk736D5csdakRq/P/J6XQBnAWg5i0UannnmGZMDMhLkA/eEIWyKoIhkADpBEjB99uAZuDhgsXmAJ6NAKugn0/G/ha4TpJEUAvP4CRMsFjCOWIFe+/Nt2LjB1ofRkTikiaomHsL6MAQ5N3MiTXwDycNrCKIYG+nLFVlKpLX5zbH4999/12+//ZbhiOwDjjGQEp7TosezKeaIfEaf3/z3eScSgMjvRvZHj4u8j3yPeaPv/f2wlsye8fy6MdwHIqsrgFP4h92kbVltIKvxubU/1wKOrOD+aDKan1sBvNJ15VrA2Qis/qcw2zdMrgbcX+Q/6ZoHeA6Kb1dDgDzA8wDP/h/ar4ZduWHs/wESbVhuMmxajgAAAABJRU5ErkJggg==;" vertex="1" parent="1">
          <mxGeometry x="1151" y="305" width="92" height="39" as="geometry" />
        </mxCell>
        <mxCell id="dcIogtWbxeqWuTG1K_oC-22" value="3. create persistentStorage" style="edgeStyle=orthogonalEdgeStyle;rounded=0;orthogonalLoop=1;jettySize=auto;html=1;fontColor=#009900;fillColor=#d5e8d4;strokeColor=#82b366;fontStyle=1" edge="1" parent="1" source="dcIogtWbxeqWuTG1K_oC-20" target="dcIogtWbxeqWuTG1K_oC-5">
          <mxGeometry x="-0.0733" y="21" relative="1" as="geometry">
            <Array as="points">
              <mxPoint x="503" y="240" />
              <mxPoint x="750" y="240" />
            </Array>
            <mxPoint as="offset" />
          </mxGeometry>
        </mxCell>
        <mxCell id="dcIogtWbxeqWuTG1K_oC-63" style="edgeStyle=orthogonalEdgeStyle;rounded=0;orthogonalLoop=1;jettySize=auto;html=1;entryX=0.5;entryY=1;entryDx=0;entryDy=0;strokeWidth=1;fontSize=14;fontColor=#000000;fillColor=#e1d5e7;strokeColor=#9673a6;" edge="1" parent="1" source="dcIogtWbxeqWuTG1K_oC-20" target="dcIogtWbxeqWuTG1K_oC-5">
          <mxGeometry relative="1" as="geometry">
            <Array as="points">
              <mxPoint x="501" y="412" />
              <mxPoint x="750" y="412" />
            </Array>
          </mxGeometry>
        </mxCell>
        <mxCell id="dcIogtWbxeqWuTG1K_oC-69" value="3. Create services and databases" style="edgeLabel;html=1;align=center;verticalAlign=middle;resizable=0;points=[];fontSize=11;fontColor=#990099;fontStyle=1" vertex="1" connectable="0" parent="dcIogtWbxeqWuTG1K_oC-63">
          <mxGeometry x="-0.6392" y="51" relative="1" as="geometry">
            <mxPoint x="73" y="-1" as="offset" />
          </mxGeometry>
        </mxCell>
        <mxCell id="dcIogtWbxeqWuTG1K_oC-20" value="CMS" style="rounded=1;whiteSpace=wrap;html=1;align=center;fillColor=#f8cecc;strokeColor=#b85450;" vertex="1" parent="1">
          <mxGeometry x="460" y="310" width="50" height="30" as="geometry" />
        </mxCell>
        <mxCell id="dcIogtWbxeqWuTG1K_oC-39" value="" style="group" vertex="1" connectable="0" parent="1">
          <mxGeometry x="-170" y="540" width="250" height="20" as="geometry" />
        </mxCell>
        <mxCell id="dcIogtWbxeqWuTG1K_oC-31" value="" style="endArrow=classic;html=1;strokeWidth=1;fontColor=#009900;fillColor=#e1d5e7;strokeColor=#9673a6;" edge="1" parent="dcIogtWbxeqWuTG1K_oC-39">
          <mxGeometry width="50" height="50" relative="1" as="geometry">
            <mxPoint y="10" as="sourcePoint" />
            <mxPoint x="50" y="10" as="targetPoint" />
          </mxGeometry>
        </mxCell>
        <mxCell id="dcIogtWbxeqWuTG1K_oC-38" value="Create&lt;span style=&quot;&quot;&gt;&amp;nbsp;test environment flow&lt;br&gt;&lt;/span&gt;" style="text;html=1;strokeColor=none;fillColor=none;align=center;verticalAlign=middle;whiteSpace=wrap;rounded=0;fontStyle=0" vertex="1" parent="dcIogtWbxeqWuTG1K_oC-39">
          <mxGeometry x="30" width="220" height="20" as="geometry" />
        </mxCell>
        <mxCell id="dcIogtWbxeqWuTG1K_oC-41" value="" style="group" vertex="1" connectable="0" parent="1">
          <mxGeometry x="100" y="540" width="250" height="20" as="geometry" />
        </mxCell>
        <mxCell id="dcIogtWbxeqWuTG1K_oC-26" value="" style="endArrow=classic;html=1;fontColor=#009900;fillColor=#d5e8d4;strokeColor=#82b366;strokeWidth=1;" edge="1" parent="dcIogtWbxeqWuTG1K_oC-41">
          <mxGeometry width="50" height="50" relative="1" as="geometry">
            <mxPoint y="10" as="sourcePoint" />
            <mxPoint x="50" y="10" as="targetPoint" />
          </mxGeometry>
        </mxCell>
        <mxCell id="dcIogtWbxeqWuTG1K_oC-40" value="Create persistent storage flow" style="text;html=1;strokeColor=none;fillColor=none;align=center;verticalAlign=middle;whiteSpace=wrap;rounded=0;fontColor=#000000;" vertex="1" parent="dcIogtWbxeqWuTG1K_oC-41">
          <mxGeometry x="60" width="190" height="20" as="geometry" />
        </mxCell>
        <mxCell id="dcIogtWbxeqWuTG1K_oC-44" value="" style="group" vertex="1" connectable="0" parent="1">
          <mxGeometry x="410" y="540" width="100" height="20" as="geometry" />
        </mxCell>
        <mxCell id="dcIogtWbxeqWuTG1K_oC-18" value="" style="rounded=1;whiteSpace=wrap;html=1;align=center;fillColor=#f8cecc;strokeColor=#b85450;" vertex="1" parent="dcIogtWbxeqWuTG1K_oC-44">
          <mxGeometry width="50" height="20" as="geometry" />
        </mxCell>
        <mxCell id="dcIogtWbxeqWuTG1K_oC-43" value="Service" style="text;html=1;strokeColor=none;fillColor=none;align=center;verticalAlign=middle;whiteSpace=wrap;rounded=0;fontColor=#000000;" vertex="1" parent="dcIogtWbxeqWuTG1K_oC-44">
          <mxGeometry x="60" width="40" height="20" as="geometry" />
        </mxCell>
        <mxCell id="dcIogtWbxeqWuTG1K_oC-46" value="" style="group" vertex="1" connectable="0" parent="1">
          <mxGeometry x="600" y="540" width="140" height="20" as="geometry" />
        </mxCell>
        <mxCell id="dcIogtWbxeqWuTG1K_oC-19" value="" style="rounded=0;whiteSpace=wrap;html=1;fillColor=#dae8fc;strokeColor=#6c8ebf;" vertex="1" parent="dcIogtWbxeqWuTG1K_oC-46">
          <mxGeometry width="50" height="20" as="geometry" />
        </mxCell>
        <mxCell id="dcIogtWbxeqWuTG1K_oC-45" value="Blueprint file" style="text;html=1;strokeColor=none;fillColor=none;align=center;verticalAlign=middle;whiteSpace=wrap;rounded=0;fontColor=#000000;" vertex="1" parent="dcIogtWbxeqWuTG1K_oC-46">
          <mxGeometry x="50" width="90" height="20" as="geometry" />
        </mxCell>
        <mxCell id="dcIogtWbxeqWuTG1K_oC-49" value="Create test environment" style="text;html=1;strokeColor=none;fillColor=none;align=center;verticalAlign=middle;whiteSpace=wrap;rounded=0;fontColor=#000000;fontStyle=1;fontSize=14;" vertex="1" parent="1">
          <mxGeometry x="-210" y="200" width="170" height="20" as="geometry" />
        </mxCell>
        <mxCell id="dcIogtWbxeqWuTG1K_oC-50" value="Client-Data Repo" style="rounded=1;whiteSpace=wrap;html=1;verticalAlign=middle;align=center;" vertex="1" parent="1">
          <mxGeometry x="-210" y="779.5" width="150" height="51" as="geometry" />
        </mxCell>
        <mxCell id="dcIogtWbxeqWuTG1K_oC-52" style="edgeStyle=orthogonalEdgeStyle;rounded=0;orthogonalLoop=1;jettySize=auto;html=1;strokeWidth=1;fontSize=14;fontColor=#000000;" edge="1" parent="1" source="dcIogtWbxeqWuTG1K_oC-51" target="dcIogtWbxeqWuTG1K_oC-50">
          <mxGeometry relative="1" as="geometry" />
        </mxCell>
        <mxCell id="dcIogtWbxeqWuTG1K_oC-54" style="edgeStyle=orthogonalEdgeStyle;rounded=0;orthogonalLoop=1;jettySize=auto;html=1;strokeWidth=1;fontSize=14;fontColor=#000000;" edge="1" parent="1" source="dcIogtWbxeqWuTG1K_oC-51" target="dcIogtWbxeqWuTG1K_oC-53">
          <mxGeometry relative="1" as="geometry">
            <Array as="points">
              <mxPoint x="131" y="749" />
              <mxPoint x="346" y="749" />
            </Array>
          </mxGeometry>
        </mxCell>
        <mxCell id="dcIogtWbxeqWuTG1K_oC-60" style="edgeStyle=orthogonalEdgeStyle;rounded=0;orthogonalLoop=1;jettySize=auto;html=1;entryX=0.5;entryY=1;entryDx=0;entryDy=0;strokeWidth=1;fontSize=14;fontColor=#000000;" edge="1" parent="1" source="dcIogtWbxeqWuTG1K_oC-51" target="dcIogtWbxeqWuTG1K_oC-53">
          <mxGeometry relative="1" as="geometry">
            <Array as="points">
              <mxPoint x="131" y="881" />
              <mxPoint x="346" y="881" />
            </Array>
          </mxGeometry>
        </mxCell>
        <mxCell id="dcIogtWbxeqWuTG1K_oC-61" style="edgeStyle=orthogonalEdgeStyle;rounded=0;orthogonalLoop=1;jettySize=auto;html=1;entryX=0.5;entryY=1;entryDx=0;entryDy=0;strokeWidth=1;fontSize=14;fontColor=#000000;" edge="1" parent="1" source="dcIogtWbxeqWuTG1K_oC-51" target="dcIogtWbxeqWuTG1K_oC-57">
          <mxGeometry relative="1" as="geometry">
            <Array as="points">
              <mxPoint x="131" y="881" />
              <mxPoint x="865" y="881" />
            </Array>
          </mxGeometry>
        </mxCell>
        <mxCell id="dcIogtWbxeqWuTG1K_oC-51" value="" style="shape=image;verticalLabelPosition=bottom;labelBackgroundColor=#ffffff;verticalAlign=top;aspect=fixed;imageAspect=0;image=data:image/png,iVBORw0KGgoAAAANSUhEUgAAAFQAAABuCAYAAAC5ijQKAAAgAElEQVR4Ae2dZ1gUSfe399k17IoiSeIwA0wOzDADA0jOAgoioGJAksiaUTFj2lVMa9Y1iznnnBMqZgExrzln3fh8+73XKbdnAUERkfV5/37oq3q6e7qr7j516tSpU9Vf/fe//8WXrfoYfPUFZvXBJJZfgFZzDf0C9AvQ6q2i1a3yvkjoFwn9IqEfbZY9evIEhcUXkJ9/HDt37MCOHTuwe/duHD9xAsWXLuPZ8xcf/YzqqvqfbZV/+OABlixejOTEDtC7uUEilUIoFELA54PP50MgEEAkEkEqk8HT3QOdM77H+nXr8PLly38V7mcH9GDeEaQmp8Lc3ByWFhawNrNA3Vq1oZVL0D25Jab+kIl54wdg8vCe6N+lPQK99DBt2BB16tSBsbExLCwsMGnixH8N6mcB9I8//sCR4yfQIro5ateujXr16sHexhYWpqYI8nbDxkVT8OjSYby6ebzc7da5Pdi6eDLaxkWjoXEDfP3115CJJTh+6jT++uuvGoX7rwKl6nn2XAH6ZvWFk5MTWjSPQW5uLkbmjIaXTo2fx2bjbtF+A8SX14/ifduZfavQNbkVrCxMYWfHw8YNG/Dq1asag/qvACWJvH79OqZMmQI/Pz+kpaZi2dKlWL9hI7J690ZMRCDyty9iIAngi2t5bHtStBWPCza/d3t5cQe2LhwHlVQOJycRFi5ciGfPntUI1BoH+vvvv+Nofj5SUlLg5+uHceN/wvYdOzF29BgEejXGoMwMUBWm6v3y+hE8Ld71XoDlQX5evA2H1s6Ai1IBmUyGJUuW4uXLTy+pNQqU9Nm5gkJERTdHZEQklixfgcVLl6Ff336ICGuCWWOz/wZ5DM8v768yzJKA184ZCY1CBBedDjt27gLVjuoykcq7T40Cff78BbKzhyDAzx/rN27CkmUrkNmzF5qGR2DM0H54cSMfr27k4+mFqkllSZC0/6RoGx5f3I/caT9A7shHQsvWuHr16v8/QG/fug2lQoFOHTuhc/r3UMmVsLe3R+voMFw6toVJ5+sre0tV8WcX9+DFtcO4fmILHp59v/40QC3cgltntmPKyP7ISE6Al04DK4tGyF24CL/++usng1pjEnrvwUPEx8YxU8jRwQGt41th1I8jMXTIEHRo3QLXT+9kQJ8UbjEAfXphN66d3I5h/XvAxVkBmZCP3csmGc4b4JXTUD0r2oqZo/tDp5RBI5PDtIEpLExM0aF9Iu7dvfe/D1Ts4AiLhibQa3VYuXIV8o7mY8XKVcgenA29zhWX8rfgSeE/rTg1RsV5a5HQPAS21tZoG9ME/Tq3w8JJ2ZUC+vDcJhTuycXDMxtx+/gaLJs+DBqFErVrf4uCgoL/baBTJk/GV199hbDgEBzIy8PcBbno1DGdbWkpaVBKZbh4dFMpULdObEC/7qmIDGqMoxtngUyh15errlup1d+1bCKUEkcsWrr0kzVOn7zK//b775A5iVi3cOfefZgxfTo6pnZEl++7sC01KQUB3t64lrfSAPRp0RYcXvczOrWLxc6lE0HV913Vu7LnXl7Yjh5pbTCgXz+8fv36k0jpJwd66eo1WFpaIblDElavXVcKJkFtGRePjm1jcefEWgM00qNHNs7G/AnZeHh2o+E4B46OPTxbWqK5c+Wlj85twv3T69mLWTFjOBLiY/HixafxUH1yoAcOHWaOjvHjxjF9yUkml4aHNkHOwC6swCVhkA4sDyZdc+/sVuRt+PktyaXrb+WveesFPCrciuNb5+PSwaU4sWUOXJRSPH369H9PQh88fIisXn1gatwQBJSDWDL19PLDkmnD8eDMhrdAlATM7ZPBf7/4AIb1Tnvr+nun1mPu2AGljpMtSmbXspk52Jo7FhcPLoUT3xZPnjz53wJ65+499O0/AAJHISxNzZh5VBIkt6/We2HrksqZQi+Kt+PVzXw8upyHWeOzsW3RODw7v80A8GnRVjQPC8CF/Yv/OVa8i5lje1bNxKzRfXFq+zyIHOywatWq/x2gd+/dR5++/WBiz0cbkQhmZuYY0K8/khKT0CQ0DM0imyKpfQcmsW46PWt4OAl8V0rAXl/dh1dX9uLE1vno3iEexzbNwrPzbxqtVxd3YPTAzujVMYFZBXSvm/lrcGTTXKybNxrRoT5YPCUbQoET826tWbOm2qFWuw598fIlfhyVg/rWNkiViHBA7wJLOx6kTkIYNzDGd99+h3rf1YPA3h5xLWIR6OuPtXNGMXvxXTDp3N4Vk5EzIAPr5o7CosnZCPF2R3aPZJBJROepMbtyeBkszEywacEYvLiwHatmDoetlQWsLMzQNNgLRzb8DImTFKaWNqyXdvTIkWqFWu1A161ZC1MbW7SRiHC1sR5jVQrY2wvgxBdg+5KJeHwlD6f2LEdME184OTgypwj1aN4HkwP6bd06qF3rG9Sq9Q3c1DIc2zjLAJSueXVxJ/Pmm5k2xMUDS9iLOrh6GpNksgyeFm5hQMcoFTC35UEkFuP8xYvVBrXagJIn6cTx49C56RHA4+GY3hU3G+uhdhDAplEjFOVtwNUT27BgQjbOHFqPbatnwVevhafeHZ3ax5Uym94Ht3DPQqYnqVUnvVr2+teXdiIhOgx+7q64lrei1PlHBZshcbLHDp0zpqpVqG9nx7rE1eWErjagDx48QGpqGhxNTbFQq8Ezn8Y45e4KubkFxg/tyRqGtIRoWJmawc/DhY0Lfd8+BgJrK8Q3CcDNY6tLFbwspA/9ffnQUgQ01qNzYiyuHF5uuPft42shcuBjl06Ns+46dBaLwBeKMXHiJLyuBqdJtQAl6Vy8ZCmMjOqji1yKe17ueOTtid1uLhAZ1cOu1XMZ0JNb5yIhOhQzRvVBr46tQUb2z6P6MNuwIpvzQ0Fy15Mxv2/lFHjr1ej7fVtW/UnHFuzOhUIgwhE3F5xx12Gvmwv87XnQ+/jgcF7eR1f9agH68NEjuOpc4cOzxyl3PR56e+KKpx573TSQGhljfe5EBpT65NN+6IUbR1exfvXVw8tZw1HSw8QB+dD0afHON/7PEp6nR+c2Y8FPA+GuVWHZtKF4eWEH9q+aigihBKf0WgaUoE5XKyHk8dA3KwuPHj36KKjVAnT8+J/QsH4DTFYrDTCpOp3Qa+FuYY3B3ZMYULIPl00bxhqGuyfWggzxDwVX3vUk3c8uHwBBLXmeWv+NC8YiyMuDtfq/Xt6FpdOGortGxao7waR8HtS7oK2jA5RaLQukKM8TX9ljHw2U/Jx2tnYI4AtwrbE77nq5GzJb4K5DF7EIEr4drp3cwVpcanlLFro69nctnYBTO3Lx9G8jn5wg1AWdmZOFqFAfZPdMYXqU7NTBvTthhE6DAndXg4QS2NkaFaQWFsjOzv6oXtRHA501cxa+NmqAORoVk84LHm6GjNLb3+qqgZmVFRIT4t8C+fDMhgr76x8CelT/DNB2ducC7F81he27axVIadkUG+aNYg0eOV9u5a9GeFAg5jkrDXkkmLTtcXNBc0cHuHl5M2ulshJZ9rqPBqoWyfCNjS0eeHvigbeHQTq5jBZ6uCJLLkVdMwt0SmjOHBRUuJ+yu6FLYizO710Ectd9CEC6luxJkkTqepKd2T6uKQK8PNE6KhRjBnXGnuWTcOf4WlYrlk8fjolDe7ChZU+lHJvUbwOllz9apQDP1BTzc3Px62+/VUmXfhTQoydOwtTMDP3lUjz29kSRR+lqxEE97+GK9mIRvrKyQZ3axsxZIrC1wpIZOaBhjsrCJPuSrr15bBW6dIjH3HEDcHDNNFw/spLBJR3Jbad3zMeCCYMQ6usOtVzIHCMzc/oi3VWDvBINEpdHUk/bXF3gbWuHtE4ZuH//fs0DHTdmLBpY2+KYXouH3h5vVSMus5QSVDKkfRwd0cjCBvHRUWy86PW1g6A+emWgUtADNUCkh8/smI+WTYNgbmqC+kYNYWJkgkamZqj1zTfIW/8zHHg8NDCqBxeFmDWE1ADGRoZhsEiE039X85L5o/3jei3ixCI4CEUorOIwSZUllKpEoJ8/hPZ8ZsQTsLIZLPubJJikox3fAZHBASjYv5K1/k+Ld5QCSv3x8gC/uHoIlw8tQ0JMJFMdZBaRGZQzoDMS45vCW6+Hm0bOqntmciumVs7uymWOkuUzRkDvrMR8Z0WF+SQpHaVSwMrICBs2bsQff/75wVJaZaCXr1yFQqFAR5GQASVdWRZgeb9JCobIJNBoVFi/cPJbQEkCl04dyhqY8nQr6c28dTOQldEOq2eNZNJKOpkG4+6eXMe6sDQoR7qVuqWcw6R9yyjE8/jY7+bylp7n8nnOXYcVWmfITEwwYviIKg2TVBno3j174OjoiElKGQPKZep9KSn/pS7O0NnYYHj/bsy3WVJCCeju5ZOQM+B71gEoDypJ79xxA+Gjd0XrqCB06dAC/bu0xeDuiWzrld4aV/OWM5h0vzlj+8FbLsY0lbzC6s7le5+bBm7W1oiPb4nnz5/XnIQuzF0IG4ED1riomBOEy9D7UgJK1b6zowAtm4bgzP7VoKr8uMQQMvWkcgZ0wdhB3ZnOLA8q6cTlM4aha1IcWkcFIzbCH21iQpDeNhrDeqcwU4mk88iGmfDy0iPegc8MeHr+u/J4Uq9FkEAAhVyBJ48f1xzQEcOGw8TBiVWh4kpWd64gVLUWalTwEdhj9oRheHo1r1S3kTxCp7bNQ/eUVpj2YyZofInMpJJ69UnBZpAOJfjUSJ3ft4jpVdK/VP3pWjrXJTEO5o0sESkUMpv4fUBJj6ZIJDAxqo+HDx/WHNDMHj1gJXBEkae+Qp3EASyZUoFI387UqCCytER0ZDCuUNTIjaOlgf0tXW1iQjF7TF88KaBAiNJQCRodIwnmNjpGPSLSq92T4iGwtoOjUAZrOx5aiUXMGfIuqJS37jIp6tepg4uXLtcc0LSUFDjY83Glsfs7q1BZmMf0OvSRyyDk8VmUMkUcz5k0Ak+vHsHrS6UDGcicoiGOMD89BnRpx+xPzhYtKa3cPjk/6DzFhupUCthZWkPr3xRB6YOh9giEvS0PQU5O2PW3p6lk3rh9AjpEIYNp3brIP3mq5oAmt0+Esz0fVysJtNDdFbPVSkj5AhjZ2UOs0cOlaVvIFDp8V8cEc8YOwJMrecz7RK43qs4EiqDS8G9GmxhInZwwe0w/VpWpBSeA1OrTPjlb1s0ZCf/GHvjmG2P2soRiGbRN2yGoUzZCOg+HUu8HKx4fznwHbHfVMNuYA8mlBHQYB/TEyZoDmpacAhVfUG6vg8scVa0Teh1W6ZwRJ3TCd3wHCOUu8Ezohog+P7HNp0MfSGVqfFu7Fny9vDEjZwDWzh2NfSunYt+KyRjcLQn+rloE63UQOjriP7UbwsbMHG1bNEFWp7bo3D4WrSKDIHMSwNLCFPY2NFbEh0TgwGaL8Ph8OPs2QViPHARnDIFS7wu+nT0c7flYq1O/VbtKAj1+qgYltHNGBhwEDjhUTjeOQFJvZKebC/rIpTC148FRooJbaBwrFAczPHMMQrr+AG1ESwh4tohr3gIL5i/AiOHDkZqUDJ2LFhpLKwyXS5GtVMBf6AQpTafhC9gAW6CnHu5qNZJiI1hffXjfdHirFHB3csQ6nQuTQNLVPKUL3KITEZiezaTVxScUTgIHCPkCHCmTfwI6WCGDSd26KCg6X3MSOnjgQFgJHLDDVVPqLZ/62wtOvtFIR0c4Okmg8gyEX+oAg1SG9xqL4M7D4NuhD/SxadBFd4BzUBR4jjJk9umPDevX4/Sp0xg8YgS6ipyYWfbE2wOXPN2w3U2L3nI5fCRiNA31x5DMjpiW0w/DszIQplZitFKBq5563PJyxwUPV+zV6xCmcIbavxl7lm9yP9Dzdd7B+M6Oh3Va51L5J6DpUgnq1amDq9eu1RzQqVOmwELggKWafzw3JJUrdWokiMUQ2ljDXqqCPjIBTXqOZjDDe49DQHo2fBJ7Qx/XkYEkmNymiUiAg6sf1O4+aNYsGlpXPQaIhbjo6cYsAyrs9cZ6/NJYj11uWnQRS+BjYYMEngDNbe3RwUmI3W463GqsZ5CopuzXu6C92gVS/2aG53gn9oYmNBbmPHtm9nEqilIy6SJEQljb2FbJe1/lntKmjRvBdxJiglLOCkuZz9drkSmXwZRnD5mLHl4JndGEqvX3w+CfNhBe7XrCrUWqoWAcyLKpukkriPT+MBMqMNRZhcuebwBxBadnFXi4YZRKiRYiIXa4abHF1QUxQiG2uGrB2cV0HVXpNI0WAr9/gNLz+Ao1woVClnfuvpQe0rtAz+MhLDyiSjNHqgz0zLlzbLpgZ5HQUICjei26kc4Uy+AZl4rwXuMQ/P1QuLfMqBTIUmCjEmHXOBh91c7lugWpsaNGpYtMiv4KObKcHBDEGkkdyw85YjhnTCedG6RBMaVepKXACWNUilItPUnnRp0GzqYm6NOnT5XmN1UZKMWp63Q66O35BqBU5cc4K2BpZw9tcAzCeoxCYNpAuMUklypMKXAlqnzZ447+Ueihc2UdB5K2kpJEv8nR0VYihtZZjV4ZGchISoazhQXaikXIlksxUeLIoAVp9SB1wt1fE94adewF2OOmKdUpoV7SLLUSDvWNMHf+AtAUoLIe+ff9rjJQunHP7j1QT+CAPP2bIVl6w6u0avgKBJC6eiOg42BE9B5vaHi4AlU21US2QSu9N+sy0r1LAt3lpkG4nS2bfZeXfxwXL1/BtV+uY/369YiLbg6fZnFo22cYgsObwVEkhTrkHwkV+YUjXiIuJZ10bwLaVS6F0Xff4cSJEx8Mk5h8FFCa9mdiYoLJzipD5mgEsb1EzBS+d6sM1hiV1wBVFqqTmy/GqZXMDCMLggo+y1kBvaMQrgFh8Pf1w6pVq3Hz9h3MmD6DedqHZGej/fDJGLLmAAYt24nopAyI5GrWkaDnWovkmOSsNOSZe1EksUF2tgiPbIob12/UPNA79+6DLxDAw8GxlPSMdlZAaGsHbUgsq/be7XsZqtu7QLpEtnnrOgf/KKRoXLBM64wJzgrEi4SwcXZF+oT56Ju7Gd6x7dCmfSLOFhRi3779eP7sOQho0sjpDGj/RVvQLLkrlI1D2L1dmrWDqVDKqjsHklKqAQs0KshNGiInJ6dKrruPllC6QdcePfC1uTlyNSqWKcrYBp2a9Zmd3HwQlDEUwZ2y3wJVFqy2WTvIPXzfMqeoeyrRecFOokA9ayu4+4ei74INDBZJYNqoGfAOaoIVK1bizp07uP/gIQb2H4Bes1Yhe9VepPwwGbqgSIN0ChsHI1IiLSUApI+P698MedO8KVrcgMpWle2jqjw9sLCwkOkcMl+4N06mSrJUDAehBL7tejI9WhZg2d/qsJZQaD0R2HHwW/AJqsInDAqFEn3mrTPAJKCDl+9CSNs0dM/sheUrV+Fg3lF0TE1Dv9zNyJq/AQHxidAEt2D3pJdmKVNjhFJeqjEiISCLwcPaGh1S03DjRtWqO/H4aKB0k7YJCTAzNcUilzdSSsqdxuld7flwi0pEeObYtyBVBJQ6AWXP0W+pxh2e/sHoMmVxKaAE9fvxcxAQEYWFS5bi7v37iGwSzqQzNXs0lF7Bhvupg5pDJFGwGsS9fE46B8gkEAtFbHo5zVypinRWG9DzRUVoWM8IEUIhM4wpkxRoS31vWWBzhPUcDX3LDEPBygPGPE+NA1mvqrzzUo8ASMRSaPXuaNWpJ7pOX2YAO3jFbvhHt8SPP/zIJiMEhDbBwCXb4eEXDHUJc0ns5oM4iYQ5dMhGpZ4XvfzlWmdoaNijdQKufORc0GqRUIq+69+vHxoZG7NRQ8okQW0pEUOq9URYtx/hm9j7nUAJoiq4RYVAXZq2gXNgc0hkKoidhHDRatEirRt6zFzJwCaPmISgwFBs2bYdzRNTEd4uDSq/poZn0guzULlihEqOk3odNuvUGCiXIpyGOxpZsiHozl264s69j5u2WC1ASdSvXL4Md3cP6G1tsUarZsb+UKUMSr4D80X6J2UZCleeBNIx59D4CoFy/9FGtoE6JBYSuRqOPB5kYjGCY1qh48gpcPX0Q1hIKHyDQ+Cs94U2KtHwTKVnEHROQgxXytFUJIKNPR/GtetAYGnL4pnatk6ApXkjjBw9Gk8/YrGCagP6+x9/YOXq1fhPvXqIEQuZsU96lGfRCJ6tO1fYMKkCm8Ll72qpCYl6L1AD2KbtoPKLhETuDL6tHexMG8LB1obtk2vOOSQWcq8AKDz8oNLo2Rok5K5rYGaB/3zzDSKahDN9ST0+mkP/9Okz9MzMhE6rxfH8/H9Xh3IKnGIrKXrN3MyM+RTX69QQNWoEXUwKM/A5GP+kiSBHiKNQCqnKFXKNO/NZyv2jIPNuAqnOEwqtBxxlSjg5CmFvZQNrY1NYGZvCxLgh27cxtYDAxhYOvDdOY4rlFzo4MicyLQTDs7SGtbEZeBZW4FvbsiU4Ll2+wqKVaVSz5BTFo0ePwqtxY8ydN//fiW3iQJZMLxQXIyEhARIrK/STSiC2tIIqNP4toK7Nk0CGvNI/AhKJEo5OYgZFzHOAWCyGSqWCp4cnWrZqhaysvpgw/ifkLliAtWvWYNPGTWyjntqKFSswe9YsZPboCW8PT0ikCrj4hEPjEwZHgSNCAoPYtUkdkpCclIzrv/wCCl9fv2kL+vbJwr69+wzS+OTpM7RJaMPWQPlXYptKgiy5f/z4cUQ1awaFjS2cbGyh8A1nQEu67mjfNSaFeaH08emgzdLKlq1ic/r0ady7/wAvP2A1G4qinvnzTDSObsO8XGR+CZ31CA0NZdK4ceMmZKRnoODcOezetQsTJk5iTuyiwiLcuXPX4AgZ1Lc/dGoXnCsowF9VMO6rTYeWBEr7hw8fRkyzKPCsbCDTeTKgHgldDI0EVXuCSs5e8pXSZmQtxJMqNghkfy5ZsgQeUa3ZaEBA+mAI9b7w8vbGLzdu4sq1X5CSnIJdO3fhz7/+woXLV7Bi+Qps2byZzZ9/9ffs5JUrVrCImPWbNtdsbFNZgOX9PpKXB39vH4gl8nKB/qNL33jt61k74eTZc4YqWN49KzpGQNeuXQuVVyDc4zvBLTYVIr0v9FpX5B8/AQJGqzksWrwEZLhfv3kLNOnr5MmTDDgHNC8vD2q1GrNmz2HXVfS8io5/MgnlHtitcxcIBQ6VAmos02Hjps1VBrp9+w5IXNxBDhBdVCJkXmHQKp2xedMmds+kpCRMm/Ezg3vll+s4fuIkjhzLx7nzxaCJvgQ1/1g+3FxdMe/f8Idy0N6VDs0ewoZsaaSzbJUvK6E8z0D8NP6nKgPds2cPpFoPA1C5TziUEilmz5zF9HGn9E4YN3YsLl25CgJK241bt9l2++495gKkl0ISSh2EP2synPFdEEueG5MzBrxGVpWSUFVILHpn9qoeoNEdoA5uwSyHHt17sCreK7MXKCbrzLkCHDt5CnsOHsL27duxZ+9enCkoBC2WMGzoMDQJCcXFKk5X/ORVfvrUacwWrExPiSQ2yD+gykCPnz4DPl9ucNVRj4pnbYPmzaIw8seRkMvkbO0TWv+ENi8PT+Y7XbZsGdPdCxctZjGvP+SMxrMqhDKSIH1yoDQv3d7cCraWVpBrPeESngByo5Wt7tzvRpZWoKk6JaW8MvvUKJ08cxYahQou4a3BuqiBUW8Mfj4fFOmycfMWJpmHjh6Do5MT2rVpix7dejBzytfbB5aWlkhPT8cvv/zywc/n8vjJgd6jOaDJKVCqVBA5OMLW2hYynRfrj1OhqfHgYFLayNoJp86c/eACEdCLV64iwNcPDmIlVC56prtFjk7o2q077j94UOqet+7cwcEDB7B0yRK2bdiwAefPF7OGiYNTlfSTA+UydbawCD8MHwF//wDIRGLY2PAgVuuh9A6DJqg56zURUDpGPSDuf5VNOaDhoWHwCwhAty5doZBIkdi23UdJXGWfz11XY0DpgeSEKCgswqRJk9loJfW5TU1MwOM5sF6N1M0XMrmaLfbCZbCyKZk91KhENW2GHXv3sTWbSXcO7Nf/g19OZZ9Z3nU1CpTLwG+//Y4LFy5i7rx56NmzJ2KbxyA4IBBBfv7MKxTepMkHQ6CFr6k3RKtE7D+ch4LzxcxiIL8C99yaSP8VoFzBfv/9DxZ2XVxczMbByQdAI5YqZ2fcun3ng0A8fvKU2ZXUG9qxZx9bpYFW4vH18wOtgcI981On/yrQ8gpHc9ZpBfBt27Z9EIQnT98AJa8TNTC0HPuC3IXQarXI/wj/Znl5fNexzw7o3bt3oXd1Q/agwR8ElIZhKNihd6/eWLd2LesN0cq5IqGQ/X4XhOo899kBpblBmT17okl4OMg/+SGFJaA5o3Iwfdo0bNy6HT179GBA165Z+0H3+ZBnlr32swNKniBaPdFdr8eJ4x8WX0RAydlMa9rTsDZNTPu+UwbIV1q24J/q92cHlAp69vQZuLvqmcO4sgWnSLnrt26D/Jl169bF5MlTcLkKEciVfV5F132WQO/du4f09E4ICwvDtq3bUHCuAHfu3gUtslWyIDS5lY49fPwYly5fRt6Ro5gzew6T0EPVsCBLyWdVdv+zBEoznekDAVRthU5OCA8PR3JKKnpnZWHUsB8wZdIkzJwxA7TQ67Ahw9CjR090SEpCXGwsUxV2trZV9hZVFlxF132WQCmzN2/cxMyZs9jQbouYGPj6+EIqlsDRlgeBHY+tVEa+AYmjEGqlCl6ejdE8Ohpduvdg1b6iAn/q458tUCo46UXqUl6+dAlnz54FDU8c2L+fDbLt2rmTpfv37WdDGWdOn8alixfZ4B6ZUJ8aXEX3/6yBVpTpz/n4F6BVGCp+1wv9rIFS1f3jjz9BfX6q/r/99lulVvem/7EQmyqMCb0LVmXOVQooZZBWL/z1199KbRSI8DGxlO/L4NNnz3Eo7yhyFy/F9BkzWC9o196979WP+w8cxIgRI7Bh8+Ya/wJYpYDSitq0wveC3F74nDkAAAd1SURBVFzMnjvPsC1dvoK5yd4HpqrnHz1+zIaVw0LD0MCoPmrXqoXROTnvBPrq1WsYGRmh3rffQcDjs4arqs+vyv8qBZT61/PnzUN002asYPW+/RZCRyfkjBqF0+c+3VcLuALNnzuPDQeb1TfGmPcA5RY2tDA1g0osw+7de975ArhnVFdaKaDcw8iLQ0ELVqbm6NCuPW7dvFUjmaWPVynFUpgaNXgvUMrr9m3b2YxmCi77kPgorpwfk34QUBrrkQpFbNXvjqmpbNZF2YeTN56igC9dvcrcaRXpWGo0yIdJ19M9yLNE/7lfzjofHwqU7kd6n+5ftrtK52iImM7RPsW10oDdzdu38fp1+V+xoaGbW3fu4tqNG3j+4gVevnrN/k8NJt2j5FZtQCnKorCoCN27dQeFvNASmHFx8YiNaYF9Bw6xh9KiKPGxsQgJCkZoUDBaxLRgVZK+9hUQEABXNzc2iJe7ILdUJssCJVgUHde+bTv2P/ov+UEPHs5Dq9atERUegXD/YERFRYOiSWjl2qnTpiM0IAgRAcHw8fbByB9HMZ8pqTG9uzvbMjMzcfly6XVGNm/ajGZNwtnEjKlTp6Fjx3REhEdg/rz55U6urTag9CUvZ4USzioV64dTDOagAQMgEjjA1tYOp86ewx+//46DBw+iaZNwJuVSkRhh4eGYOHEic7tZmVvAztoGGo0GR/L+Wb27LFCSCLI65syZw5YD+vnnmbh06TKbrHXlyhX4eDaGrYUlxA5OWL16NZNWivckpzXlx7qRJXwae4FCc+blLmSLHZjWawBrKyv8MHKkISSchplprJ6+I3r0WD4brqGPEkZHN0ef3n3KXTWnWoCSdNJHUoy/qwe/gEA2/ECFpg+XqiQy9m3OtJRUJnU09jN4yFA0qF+fBSGsWb2a2ZZ0D1pLjxoeGv6lZTS5qlQe0AvFF5CWmoazBUVvxSARONK3tNQ7AeXus2/vXrjrXGFtboFmEZHMrqXnUoAYBetaNDBBSvsO7AOE9J9+Wf3YtRIHJ2zdssVwn0OHDmHypMm4d/eu4Rj3jHcCJR1RUgdWpENJH9aqVQt8Gzv4e3mDzKltu/Zg1KjRbAF+4wYNIBdL2MNJd2UPHc6sBbVCiR3bdxgyNW/uXDT4ui4bt6cMc5nkgBLsUSNHsr69q8YF2YMGMSjcdVxKA33lAd2/f/8boGYWSE9LN9yfJq81DY9EIxNTVrVpAgbda8zo0ew+VK5GDUzZS5g9Zw7OF1+o8KthFQKlzzZu3LIFuYsW49atN615RUDPX7zEgFJMu4ebnknX8mXLsHLlShazSXGbFMZNmfwYoDbmjZCWnAovdw/25TCFXA76WkLZD/dVF1AaAVAqlWxtElsra6amjOsZQSmTY8GC3HK/eFMh0OVLl8Hc1IxJUkpSCoNBa4GQy8y8oSky0juBBtQIEoUEkoTaWVsjKCgIxRcqXmj/Y4BSVU3u0AEzpk1nVdHG0goREZEoKCxk+ahuCT196hSu37yJwYMGISg4GG46V0iEItg2smTtxfnzby/yUiHQfll9wafP6ZqZoVWrViw8mq13Z2kJ4/r1MXz4CMMndEgPuWg0sDY1h06tecsfSbbgtAlvqvDHAOXsUKo9rVu1RiMzc7YY18ABA0o1EJWR0K6duxpeQkVVPiQ4BNeuXWM6mmL+9+zejXYJCWxNKDMTU5w6+fa6ThUCXbJsOSxpjpGHB8jXePv2HXRKS4dR3W/h5+OLQ4cPGxoDMmNWr1wFB1seTBuaICoikg3dFhadBwUv9O7dB507dWEFuH//AQveql/PCA529li+bLmhypL5VPfrWhDY2GHQwEEGu3DWzzMhFjgyfdYrM5M9l8bvXbU6NGxgDJlEAtK/L/4OQaSBOYLvZGfPGg8u3JsaSbVEDgtjE8S3iDV8Rv3M6TMI9PWDeYOGLO9Ff0s8n8dD61atcOnSJQN86h02MDJCZHgEfrn2dpRehUAfPnyEESNHsZlpWX36sGEIZ6WKKfO9+/a9tR4HmTFLlyxFy7g4JjUSsRg+vn6gYNfJU6aC5ta/eP4CkyZMQkLr1ggODGLfqOuYkoazZ8+Bhnop6oO++UkBr0mJHbB6zRps2bwFXTt3YaZWaGAwOz5tylRmnE+fPgM+Xl7sXvTfyRMn46dx45l9StfSx1fp23ekvw8eOMhCc5qFRyI0MIiF7IwZPYZJNsWOxsW0AP2nVVw8i165f+8eW5grKysLvXtmMhOQPugaGhKK9okd2Nx8aow5NcOlFQKlC6j3QmK9a/cebN6yFceOHWO9o7KNAHczcq/RW6PrDhw4wDaatsJ1/8gFd/HCRRQVFeHChQtsO3fuHB4/ecJWUKCqxx0vPn8eN2/eZA0i7XPHKaXQHaoVjx49Bk3cpWOUsnsXFoFMKu764vPFuH37Nu7fu4+y9yEdSFC4a7mU8kcTwihv1BmhqThkWh08dIhFoVAjXdL64cpP6TuBchfS6CLpSe73/8WUXuCff75/aKVSQP8vAqxqmb8ALePcqCpI7n9fgH4BWtpdxknG55L+Px9A3ac8IOnDAAAAAElFTkSuQmCC;align=center;" vertex="1" parent="1">
          <mxGeometry x="100" y="765" width="61.09" height="80" as="geometry" />
        </mxCell>
        <mxCell id="dcIogtWbxeqWuTG1K_oC-56" style="edgeStyle=orthogonalEdgeStyle;rounded=0;orthogonalLoop=1;jettySize=auto;html=1;strokeWidth=1;fontSize=14;fontColor=#000000;" edge="1" parent="1" source="dcIogtWbxeqWuTG1K_oC-53" target="dcIogtWbxeqWuTG1K_oC-55">
          <mxGeometry relative="1" as="geometry" />
        </mxCell>
        <mxCell id="dcIogtWbxeqWuTG1K_oC-53" value="CMS" style="rounded=1;whiteSpace=wrap;html=1;align=center;fillColor=#f8cecc;strokeColor=#b85450;" vertex="1" parent="1">
          <mxGeometry x="321" y="790" width="50" height="30" as="geometry" />
        </mxCell>
        <mxCell id="dcIogtWbxeqWuTG1K_oC-59" style="edgeStyle=orthogonalEdgeStyle;rounded=0;orthogonalLoop=1;jettySize=auto;html=1;strokeWidth=1;fontSize=14;fontColor=#000000;" edge="1" parent="1" source="dcIogtWbxeqWuTG1K_oC-55" target="dcIogtWbxeqWuTG1K_oC-57">
          <mxGeometry relative="1" as="geometry" />
        </mxCell>
        <mxCell id="dcIogtWbxeqWuTG1K_oC-55" value="provisioning-service" style="rounded=1;whiteSpace=wrap;html=1;align=center;fillColor=#f8cecc;strokeColor=#b85450;" vertex="1" parent="1">
          <mxGeometry x="551" y="787.5" width="120" height="35" as="geometry" />
        </mxCell>
        <mxCell id="dcIogtWbxeqWuTG1K_oC-57" value="" style="shape=image;verticalLabelPosition=bottom;labelBackgroundColor=#ffffff;verticalAlign=top;aspect=fixed;imageAspect=0;image=data:image/png,iVBORw0KGgoAAAANSUhEUgAAAFwAAAAnCAYAAACCCi9aAAANY0lEQVRoBe2a93dVxRbHBwjFp3Qb/YFPQKRIk6KgslCKKEUXjyKwBEUUUJAiCKyHAirSu4CCDZCiiNIEBAnSlADSo9JJ7klyc2P5A75vfTY515trEiAoZLnyw6xzz5wzc2a++7u/e89OXFpamvLatcPA5YF97cAG6zzAr7GH5wGeawH3PKXRUlOVFgwqdOq0NesLhfLiwGUa7rIYHkpMVOqOHQquXKnQgQMKHTqs5BkzlTT6fwp+8YVCx48rdOGCGSIvJmQfEy4L8OD69fJq11agUCEFypSR17iJEgvEKOCcAoULy2vQQMnjxin16NE8pl+C6dkDHgoplJKi5JFjFCh1swL58ikQE3MReMCm0QfopUrJq1lLyVNnKJSQkAd8FsBnDzhafeKEvNZtFChc5CLAPtDRV4C/8UZ59RsodV9ctvISCoUUDAYztFRiQxaLvFQ/cyUkJOjUqVNKSUmxefxvMC+//Tm45/3IPv9Z9PWXX34JzxX9LKf32QIe8jwlf/65AuXKKZA/f/aAY4ACBRQoVUrB5cuVFgiENxm9uH379mn8+PF68cUXw+3ll1/WvHnzdPDgwcsCw58T8OLi4jR8+HCNGTNG586dM0B37Nih1157TVOnTpXneTYnRlmyZIn1r127Vj6g/lyR1/Pnz2v16tV6//33dfQvlMo/Aw4jEhKUGh+vxF279fWAATpZrJgSoxmd2T0sL1hQKWPHKnTmTKaAw6xPP/1UtWrVUpEiRVSuXDlVrFhRt99+u+666y4NHjxYJ0+etLEAdfr0abH55OTkDPNxT/9PP/2kVatWqXLlymrTpo1+/PFHe/e9997THXfcofvvv9+MALN//vlnPf/889Y/btw4/frrr2aMs2fPmndcuHBBvMfc3333nR5++GG1bNlSGCcQCNizSKPk5HdGwGHCkSMKrlihwNBhOtS2vbqXLq1FBQromHO6kBnI0X358snr1csyl8wWBOCfffaZ7rnnHlWqVEmTJk3S/PnzNWLECLvHELAQ0L/88ku9+eabmjZtmnbu3KnExERjKkDv2rVLM2fOtOdjx45V+fLlMwW8adOmZhQAg6nPPfecAQ77AXj9+vWaPHmyXn/9dS1atEg//PCDjhw5YvPeeeedqlatmq0NkiQlJV2R92W2/wyAp8bFKalzZwWKFDFw9zmnps7pP85plHM6mA76pdh+tn59pezdm4GR/sd9wBs0aKD69evbBpGFb7/91tjIBmHfgAEDVKJECRUuXFiFChVSnTp1DBBYD3urVq1qHsKzmJgY3XDDDWrdunUGhsN6xq1cudJY+sknn6hTp06qUqWKXnnlFc2dO1e33nqrzV+wYEEVL15cDzzwgBm8dOnSyp8/vzX68R4MjQf4e8nJNQx4KC1NyfMXKFC58sXMwzmddE4znFN551TSOTVzTjOd02Hn5KU3y1QiWE7/rptvVtz06Uo6dUpp6YHHX5wPeO3atVW0aFFj+r333muSwMaQAHS3QoUKBiBgTZkyxYzTrFkzbdq0SRgL+SEOrF23zrQb4KIlpUyZMgYmhitZsqQBiozhDXgFQXb58uX65ptv7Ip8IHFICF6GserWrWse+P3331812GAQBhxgUpYslVe1Wjg4Jjino85prnOq4ZxKOKdyzqmuc+rqnCY6p2XOaa1zWu+cVjmnOc6pfcGCWlipks716KHU2FilRWQJPuBsBhCaNGmiu+++W8WKFVPjxo21cOFCvf3224JxgFijRg0zBs+RINz+tttuU+fOnU1nCZJoOHEgGnD6aC+88IIGDRqkvn37GoDMM2rUKMXGxqpLly5mQAhQtmxZiyUbN240CWvUqJHuu+8+ce9nPz5xcnr9A/C0NJmk/LeLAv+6MQw6DIbRy51TX+dUzTkVdU7FnVMF51TVOdV2TvWcU/X0vjrOaUX+/Dp/yy1K6tjR5vUX6ANer149Va9e3dz9448/NsZiBNiNpt900032HGkhkA4ZMsR0Fc1FKpo3b64NGzbo8OHDWrx4sYEVDTjS0bBhQ5EVHT9+XHv27FGvXr1MUjBA9+7djcUDBw7USy+9ZL8J3l999ZX27t1rZMD7PidT+1uCZlKSgqvXyGvewnLqSLk475zinNNS59TfObVzTg3S9b2Sc/p3ujGaO6ex6UZC673y5ZU8fHg4L48EHNAB7MyZMxo2bJgBgcauWLFCDz74oOk0rERvhw4danJCVuKDhgRgELIJZCNaw7PLUgC5bdu25l2kkzTW4wNO8GzVqpUInL179zbP+suDJiwMJQYUXLtOXqtWCpQs+af8G40GyHjntCVdUuY7p3mwOt0oGCdsrGLF5LVsKXJ6X1rQ4UcffVSPP/64MY9AhNsCACz94IMPLHsAUIIjm37ooYeEJ5CywT7YidzgJWQ8eMdTTz0VPvwgM4xBeshGMDSGffXVV63/rbfe0tKlS4VsME/NmjWtIXEEcAIk3ka8QG769OljLGce31tzcs0gKeEJgkGlHjhgzPTKlrWs5bIOPpFA+7+LFzfjhZKSwoCTaZD2kWOTofBdQCcfJldGl+nDjQ8cOGCHIQDwDypcAT4+Pl4nTpwInzKZj3kAhbHMRWD0MwuugM+3OQQxD885bOE5/vd9JvM+75ImYqyrBZs9ZQ44R2yOvwkJCsbukNe3n7wqVS6eJH0gL/PqVa6s5EmTMmQrLNxvYSPjXVH93LNpGr8j3+V35DN/rP+Ofx89Lrqf++h5/Dm4+s+j54l850p+Zw04oAMAh6H4eKXu3KmUyVPkNW+pQMWKSuQY7/L9IR3RBoiJkVe1qpKHDFEo/eR4JQu7nu/6nnSpNfAep1Xapd71n2cPeGQxKSXFgEvds1fB1auVMm2akocOlde1m7xmzeU1bGhlWq9RI3kdOil51Cg7sVIrtz9aRM6V/htZIHsgD6bxG3f2F/d3XGEqcrJ//35t3rxZu3fvDus+MoR8IDG+1Plr4JTLadcvkCFfa9assUMaBzFk0n83u+vlAx4JGO4N89HH/fvtjxOpW7YoddNmpW7dZvofOn8+nJlELwAXRjM51JCd9OjRw4IgxSwCJvWQ6DF/xT1gY1QKUmQ3zz77rB31yckBj/SRYPruu+8agD7TGceaKAuQMgIuxurWrZvVZmbMmGF95PXbtm0zg2a13pwBHgl+Dn4TnDhmk0WQcnGq456KIakYBx82BasIoAQuAiRBMNIDMBzBlMAJIH6wYyz9sJFnNNjLc1JOvkGNhmyJTKVfv35mAPJ68vGJEydayeFE/Ambh0MP3wbYPXv3mNE4/bZv396yK8hDI9UkjaXO4wf+aOCvC+DbY2PVu08fWyCywqJgE27KpjjCs2hkhsIVZVuMQUpHygZwuDyA4iUcjCjPUpIF7EOHDmn27Nk2jmcACoMxyvTp0y2P5x0MylyMoZERwXy8jtyf35xs/Wxn9OjR2r59u9VgOnToYOUG3pk1a5Z5BqdSDmQc0khLfQ+JBP2aAw5QixYvtpwb94tcDL/RSfJpAEMbyYF79uppQAEe99Q6YDxSAMvIl6mrkIsD7Lp16/TYY4/pkUce0Zw5c+xoT6GMKiUMb9GihZ0B3njjDTMYmg2LMQL5NhVLKogYmAPYhAkTTG6oq/jeiLwALt6I0fFQzhacI1jP1q1bcwfgMBoQOORQEIoEHEZQh+bYDYDUVbp176YtX28xF4WBgITmL1u2TB07drR7jvuA2bNnTyulckACuAULFtg4yrJdu3a17yIvBEpAQc6efPJJ8yjKtegyskCpFm9gHEUuaugwG2MDLMaG1dRhOIThKQRiaja8SyzAYyL35v++5gxHd2EEDPzoo48ysACWoaOwhGcwnMCGETAG2s9YtJ9aeLt27SxwUUtHBgAQg1ABZPMYhY2y+aefftq8hgMMeo4cYUDAh82Ah9xgbPSZd2jU65EkGAvgeAjrwJgYGK/gGwRWgj4x4NixY5mCzXvXHHA+CgPQXHQQVhEUCTpsCv174oknLGiRTcBAMgOCEB7BONwZRgP4yJEjrQzAWPqogSA50YBjDIDkDwkYkrTQD8rcUwIAXADHAFcKOPsC8P79+5shs6ouXhfA2QxAIwmAy0ZhF24P0wg4BLMPP/zQNJRNkC6ipXgGEkJ6R4BlzDvvvGNjKEDh7gRb9J55AAKGE9z4Bn90ANyB6SkoKSAxg+cYasTIEZo1e5aNYRzSMWjwYAvIBHP+zkkGxNpgPnk736D5csdakRq/P/J6XQBnAWg5i0UannnmGZMDMhLkA/eEIWyKoIhkADpBEjB99uAZuDhgsXmAJ6NAKugn0/G/ha4TpJEUAvP4CRMsFjCOWIFe+/Nt2LjB1ofRkTikiaomHsL6MAQ5N3MiTXwDycNrCKIYG+nLFVlKpLX5zbH4999/12+//ZbhiOwDjjGQEp7TosezKeaIfEaf3/z3eScSgMjvRvZHj4u8j3yPeaPv/f2wlsye8fy6MdwHIqsrgFP4h92kbVltIKvxubU/1wKOrOD+aDKan1sBvNJ15VrA2Qis/qcw2zdMrgbcX+Q/6ZoHeA6Kb1dDgDzA8wDP/h/ar4ZduWHs/wESbVhuMmxajgAAAABJRU5ErkJggg==;" vertex="1" parent="1">
          <mxGeometry x="819" y="785.5" width="92" height="39" as="geometry" />
        </mxCell>
        <mxCell id="dcIogtWbxeqWuTG1K_oC-72" value="1. Get blueprint" style="edgeStyle=orthogonalEdgeStyle;rounded=0;orthogonalLoop=1;jettySize=auto;html=1;entryX=1;entryY=0.5;entryDx=0;entryDy=0;fillColor=#d5e8d4;strokeColor=#82b366;fontColor=#009900;fontStyle=1;exitX=0.25;exitY=0;exitDx=0;exitDy=0;fontSize=12;" edge="1" parent="1">
          <mxGeometry x="-0.2688" relative="1" as="geometry">
            <mxPoint x="225.27250000000004" y="289" as="sourcePoint" />
            <mxPoint x="20" y="291" as="targetPoint" />
            <Array as="points">
              <mxPoint x="225" y="238" />
              <mxPoint x="92" y="238" />
              <mxPoint x="92" y="291" />
            </Array>
            <mxPoint as="offset" />
          </mxGeometry>
        </mxCell>
        <mxCell id="dcIogtWbxeqWuTG1K_oC-73" value="2. Create persistentStorage&lt;br style=&quot;font-size: 12px;&quot;&gt;environment" style="edgeStyle=orthogonalEdgeStyle;rounded=0;orthogonalLoop=1;jettySize=auto;html=1;entryX=0.5;entryY=0;entryDx=0;entryDy=0;fillColor=#d5e8d4;strokeColor=#82b366;fontColor=#009900;fontStyle=1;fontSize=12;" edge="1" parent="1">
          <mxGeometry x="-0.1142" y="15" relative="1" as="geometry">
            <mxPoint x="240.5999999999999" y="289" as="sourcePoint" />
            <mxPoint x="485" y="309" as="targetPoint" />
            <Array as="points">
              <mxPoint x="241" y="239" />
              <mxPoint x="485" y="239" />
            </Array>
            <mxPoint as="offset" />
          </mxGeometry>
        </mxCell>
        <mxCell id="dcIogtWbxeqWuTG1K_oC-74" value="3. create persistentStorage" style="edgeStyle=orthogonalEdgeStyle;rounded=0;orthogonalLoop=1;jettySize=auto;html=1;fontColor=#009900;fillColor=#d5e8d4;strokeColor=#82b366;fontStyle=1;fontSize=12;" edge="1" parent="1">
          <mxGeometry x="-0.0733" y="21" relative="1" as="geometry">
            <mxPoint x="503" y="309" as="sourcePoint" />
            <mxPoint x="750" y="304" as="targetPoint" />
            <Array as="points">
              <mxPoint x="503" y="239" />
              <mxPoint x="750" y="239" />
            </Array>
            <mxPoint as="offset" />
          </mxGeometry>
        </mxCell>
        <mxCell id="dcIogtWbxeqWuTG1K_oC-75" value="&amp;nbsp;4. Create mssql rds instance" style="edgeStyle=orthogonalEdgeStyle;rounded=0;orthogonalLoop=1;jettySize=auto;html=1;fillColor=#d5e8d4;strokeColor=#82b366;fontColor=#009900;fontStyle=1;fontSize=12;" edge="1" parent="1">
          <mxGeometry x="0.034" y="25" relative="1" as="geometry">
            <mxPoint x="786" y="304" as="sourcePoint" />
            <mxPoint x="1030" y="285.9000000000001" as="targetPoint" />
            <Array as="points">
              <mxPoint x="786" y="239" />
              <mxPoint x="1030" y="239" />
            </Array>
            <mxPoint as="offset" />
          </mxGeometry>
        </mxCell>
        <mxCell id="dcIogtWbxeqWuTG1K_oC-76" style="edgeStyle=orthogonalEdgeStyle;rounded=0;orthogonalLoop=1;jettySize=auto;html=1;entryX=0.5;entryY=1;entryDx=0;entryDy=0;strokeWidth=1;fontSize=12;fontColor=#000000;fillColor=#e1d5e7;strokeColor=#9673a6;" edge="1" parent="1">
          <mxGeometry relative="1" as="geometry">
            <mxPoint x="791" y="344" as="sourcePoint" />
            <mxPoint x="1030" y="362.10000000000014" as="targetPoint" />
            <Array as="points">
              <mxPoint x="791" y="383" />
              <mxPoint x="1030" y="383" />
            </Array>
          </mxGeometry>
        </mxCell>
        <mxCell id="dcIogtWbxeqWuTG1K_oC-77" value="4. Create databases" style="edgeLabel;html=1;align=center;verticalAlign=middle;resizable=0;points=[];fontSize=12;fontColor=#990099;fontStyle=1" vertex="1" connectable="0" parent="dcIogtWbxeqWuTG1K_oC-76">
          <mxGeometry x="-0.2774" y="2" relative="1" as="geometry">
            <mxPoint x="51" as="offset" />
          </mxGeometry>
        </mxCell>
        <mxCell id="dcIogtWbxeqWuTG1K_oC-80" style="edgeStyle=orthogonalEdgeStyle;rounded=0;orthogonalLoop=1;jettySize=auto;html=1;entryX=0.5;entryY=1;entryDx=0;entryDy=0;strokeWidth=1;fontSize=12;fontColor=#000000;fillColor=#e1d5e7;strokeColor=#9673a6;" edge="1" parent="1">
          <mxGeometry relative="1" as="geometry">
            <mxPoint x="501" y="339" as="sourcePoint" />
            <mxPoint x="750" y="344" as="targetPoint" />
            <Array as="points">
              <mxPoint x="501" y="411" />
              <mxPoint x="750" y="411" />
            </Array>
          </mxGeometry>
        </mxCell>
        <mxCell id="dcIogtWbxeqWuTG1K_oC-81" value="3. Create services and databases" style="edgeLabel;html=1;align=center;verticalAlign=middle;resizable=0;points=[];fontSize=12;fontColor=#990099;fontStyle=1" vertex="1" connectable="0" parent="dcIogtWbxeqWuTG1K_oC-80">
          <mxGeometry x="-0.6392" y="51" relative="1" as="geometry">
            <mxPoint x="73" y="-1" as="offset" />
          </mxGeometry>
        </mxCell>
      </root>
    </mxGraphModel>
  </diagram>
</mxfile>
